<svg width="14" height="13" viewBox="0 0 14 13" fill="none" xmlns="http://www.w3.org/2000/svg">
<path d="M13.6787 11.0856C13.9977 11.4046 13.9977 11.8831 13.6787 12.2022L13.1204 12.7604C12.8014 13.0795 12.323 13.0795 12.0039 12.7604L7.41797 8.17469L2.83233 12.7607C2.51328 13.0798 2.03488 13.0798 1.71579 12.7607L1.15754 12.2024C0.838494 11.8834 0.838494 11.405 1.15754 11.0859L5.74318 6.49986L1.15725 1.91412C0.838207 1.59507 0.838207 1.11665 1.15725 0.797557L1.71551 0.23929C2.03456 -0.0797634 2.51296 -0.0797634 2.83205 0.23929L7.41797 4.82503L12.0036 0.23929C12.3227 -0.0797634 12.8011 -0.0797634 13.1201 0.23929L13.6784 0.797557C13.9974 1.11661 13.9974 1.59503 13.6784 1.91412L9.09276 6.49986L13.6787 11.0856Z" fill="black"/>
</svg>
