<svg width="43" height="28" viewBox="0 0 43 28" fill="none" xmlns="http://www.w3.org/2000/svg">
<mask id="path-1-outside-1_38_19" maskUnits="userSpaceOnUse" x="0.28125" y="0" width="43" height="28" fill="black">
<rect fill="white" x="0.28125" width="43" height="28"/>
<path d="M6.63092 15.7483C5.60505 14.7225 4.4615 14.5598 3.55084 14.9049C3.19852 15.0383 2.87909 15.2482 2.61362 15.514C2.34818 15.7794 2.13824 16.0988 2.00461 16.4512C1.65953 17.3618 1.82241 18.5054 2.84801 19.5313L8.44824 25.1315C8.53843 25.2217 8.62561 25.3022 8.71066 25.3737C8.80025 25.4494 8.89104 25.5194 8.98274 25.584L8.99239 25.5915C9.22103 25.7686 9.47864 25.9091 9.75585 26.0035C10.0228 26.0943 10.3063 26.1426 10.5986 26.1396H10.6028C10.8951 26.1426 11.179 26.0943 11.4459 26.0035C11.7231 25.9091 11.9807 25.7689 12.2094 25.5918L12.2193 25.5843C12.311 25.5197 12.4021 25.4497 12.4917 25.374C12.5765 25.3025 12.664 25.2217 12.7538 25.1318L18.3541 19.5316C19.3799 18.5057 19.5426 17.3621 19.1975 16.4515C19.0642 16.0992 18.8542 15.7797 18.5885 15.5143C18.323 15.2488 18.0036 15.0389 17.6512 14.9052C16.8441 14.5994 15.8535 14.6926 14.9244 15.4325L13.898 16.459C13.8681 16.4889 13.8331 16.5106 13.796 16.5239L11.284 19.0359C11.0701 19.2498 10.8647 19.3707 10.6418 19.3873C10.4074 19.4048 10.1896 19.3077 9.96549 19.0839L6.63092 15.7483ZM19.9029 5.94039C19.7976 5.82848 19.8031 5.65232 19.915 5.54704C20.0269 5.44177 20.2031 5.4472 20.3083 5.55911L20.3433 5.5944C20.6917 5.94672 21.1388 6.11926 21.5855 6.12076C22.0361 6.12227 22.4886 5.95215 22.8433 5.61913C22.8581 5.60526 22.8702 5.5938 22.8795 5.58445C22.9884 5.47616 23.1646 5.47646 23.2729 5.58565C23.3811 5.69455 23.3808 5.8707 23.2717 5.979C23.2536 5.99709 23.2379 6.01218 23.2246 6.02454C22.7634 6.4574 22.174 6.67881 21.5852 6.67669C20.9928 6.67458 20.4031 6.44865 19.9464 5.98684C19.9431 5.98352 19.9289 5.96784 19.9029 5.94039ZM32.7199 7.96139C33.7494 7.96139 34.6811 8.37856 35.356 9.05336C36.0308 9.72816 36.4479 10.6599 36.4479 11.6894C36.4479 12.7189 36.0308 13.6507 35.356 14.3255C34.6815 15.0003 33.7494 15.4175 32.7199 15.4175C31.6904 15.4175 30.7587 15.0003 30.0839 14.3255C29.4091 13.6507 28.9919 12.7189 28.9919 11.6894C28.9919 10.6599 29.409 9.72819 30.0839 9.05336C30.7586 8.37859 31.6904 7.96139 32.7199 7.96139ZM34.9614 9.44788C34.3877 8.87416 33.5953 8.51946 32.7199 8.51946C31.8445 8.51946 31.0521 8.87419 30.4784 9.44788C29.9047 10.0216 29.55 10.814 29.55 11.6893C29.55 12.5647 29.9048 13.3571 30.4784 13.9308C31.0522 14.5045 31.8445 14.8592 32.7199 14.8592C33.5953 14.8592 34.3877 14.5045 34.9614 13.9308C35.5351 13.3571 35.8898 12.5647 35.8898 11.6893C35.8898 10.814 35.5351 10.0215 34.9614 9.44788ZM10.8131 7.96139C11.8426 7.96139 12.7743 8.37856 13.4492 9.05336C14.124 9.72816 14.5411 10.6599 14.5411 11.6894C14.5411 12.7189 14.124 13.6507 13.4492 14.3255C12.7744 15.0003 11.8426 15.4175 10.8131 15.4175C9.78361 15.4175 8.85188 15.0003 8.17705 14.3255C7.50222 13.6507 7.08508 12.7189 7.08508 11.6894C7.08508 10.6599 7.50225 9.72819 8.17705 9.05336C8.85185 8.37853 9.78361 7.96139 10.8131 7.96139ZM13.0546 9.44788C12.4809 8.87416 11.6885 8.51946 10.8131 8.51946C9.93774 8.51946 9.14531 8.87419 8.57164 9.44788C7.99792 10.0216 7.64323 10.814 7.64323 11.6893C7.64323 12.5647 7.99796 13.3571 8.57164 13.9308C9.14537 14.5045 9.93774 14.8592 10.8131 14.8592C11.6885 14.8592 12.4809 14.5045 13.0546 13.9308C13.6283 13.3571 13.983 12.5647 13.983 11.6893C13.983 10.814 13.6283 10.0215 13.0546 9.44788ZM21.6384 1C22.6679 1 23.5996 1.41717 24.2744 2.09197C24.9492 2.76674 25.3664 3.69853 25.3664 4.72803C25.3664 5.75753 24.9492 6.68927 24.2744 7.36409C23.5996 8.03892 22.6679 8.45606 21.6384 8.45606C20.6089 8.45606 19.6771 8.0389 19.0023 7.36409C18.3275 6.68932 17.9103 5.75753 17.9103 4.72803C17.9103 3.69853 18.3275 2.7668 19.0023 2.09197C19.6771 1.4172 20.6089 1 21.6384 1ZM23.8798 2.48649C23.3061 1.91276 22.5137 1.55807 21.6384 1.55807C20.763 1.55807 19.9706 1.9128 19.3969 2.48649C18.8232 3.06021 18.4685 3.85259 18.4685 4.72795C18.4685 5.60332 18.8232 6.39575 19.3969 6.96942C19.9706 7.54314 20.763 7.89784 21.6384 7.89784C22.5137 7.89784 23.3062 7.54311 23.8798 6.96942C24.4535 6.39574 24.8083 5.60332 24.8083 4.72795C24.8083 3.85259 24.4535 3.06015 23.8798 2.48649ZM24.4928 19.9251C24.4689 19.9013 24.4502 19.8738 24.4367 19.8449L21.94 17.3482C21.8211 17.2293 21.7273 17.1636 21.6531 17.1581C21.5901 17.1533 21.5123 17.1989 21.4106 17.3005L18.0756 20.6355C18.0458 20.6654 18.0108 20.6871 17.9737 20.7004L13.1487 25.5254C13.0539 25.6201 12.955 25.7109 12.8515 25.7981C12.7481 25.8855 12.644 25.9658 12.5399 26.0388C12.2651 26.2496 11.9566 26.4173 11.625 26.5301C11.3032 26.6396 10.9584 26.6979 10.6009 26.6945C10.2438 26.6979 9.89902 26.6399 9.57715 26.5301C9.24565 26.4173 8.93677 26.2496 8.66194 26.0385C8.55787 25.9655 8.45411 25.8852 8.35065 25.7978C8.24749 25.7106 8.14825 25.6195 8.05353 25.5248L2.4533 19.9245C1.24882 18.7201 1.06697 17.3537 1.48349 16.2539C1.64608 15.8243 1.89975 15.4374 2.21889 15.1182C2.53802 14.7991 2.92503 14.5454 3.35456 14.3828C4.45433 13.9662 5.82082 14.1481 7.02522 15.3526L10.3602 18.6876C10.4616 18.7889 10.5397 18.8345 10.6027 18.83C10.6769 18.8245 10.771 18.7588 10.8896 18.6399L14.1768 15.3527C14.3008 15.2284 14.4269 15.1156 14.5539 15.0127L19.1039 10.4628C19.1986 10.3681 19.2978 10.2773 19.401 10.1898C19.5044 10.1023 19.6085 10.0221 19.7123 9.94908C19.9871 9.73823 20.2956 9.57052 20.6275 9.4577C20.9493 9.34821 21.2938 9.28999 21.6513 9.29331C22.0087 9.28999 22.3532 9.34821 22.6754 9.4577C23.0069 9.57051 23.3154 9.73823 23.5903 9.94908C23.6943 10.0221 23.7984 10.1023 23.9019 10.1898C24.005 10.277 24.1043 10.3681 24.199 10.4625L29.7992 16.0627C29.8994 16.1628 29.9923 16.2639 30.0782 16.3659L32.3996 18.6872C32.501 18.7886 32.5791 18.8341 32.6421 18.8296C32.7163 18.8242 32.8104 18.7584 32.929 18.6396L36.2159 15.3523C37.4204 14.1479 38.7868 13.966 39.8866 14.3825C40.3161 14.5451 40.7028 14.7988 41.0223 15.1179C41.3414 15.4371 41.5951 15.8241 41.7577 16.2536C42.1742 17.3534 41.9923 18.7199 40.7879 19.9243L35.1876 25.5245C35.0929 25.6192 34.994 25.71 34.8905 25.7972C34.7871 25.8846 34.683 25.9649 34.5789 26.0379C34.3041 26.2487 33.9955 26.4164 33.664 26.5293C33.3422 26.6388 32.9974 26.697 32.6399 26.6936C32.2828 26.697 31.938 26.639 31.6161 26.5293C31.2846 26.4164 30.9757 26.2487 30.7009 26.0376C30.5969 25.9646 30.4931 25.8843 30.3896 25.7969C30.2862 25.7094 30.1872 25.6186 30.0925 25.5239L24.4923 19.9236L24.4928 19.9251ZM27.0796 21.7229L30.4876 25.1308C30.5778 25.221 30.665 25.3015 30.75 25.373C30.8396 25.4487 30.9304 25.5187 31.0221 25.5833L31.0321 25.5908C31.2607 25.7679 31.5183 25.9085 31.7955 26.0029C32.0625 26.0937 32.346 26.1419 32.6383 26.1389H32.6425C32.9348 26.1419 33.2186 26.0937 33.4856 26.0029C33.7628 25.9084 34.0204 25.7682 34.2491 25.5911L34.259 25.5836C34.3507 25.519 34.4418 25.449 34.5314 25.3733C34.6161 25.3018 34.7036 25.221 34.7935 25.1311L40.3937 19.5309C41.4196 18.505 41.5822 17.3615 41.2371 16.4508C41.1038 16.0985 40.8939 15.7791 40.6281 15.5136C40.3627 15.2481 40.0432 15.0382 39.6909 14.9046C38.7802 14.5595 37.6367 14.7224 36.6108 15.748L33.3236 19.0352C33.1097 19.2491 32.9043 19.3701 32.6814 19.3866C32.447 19.4041 32.2292 19.307 32.0051 19.0832L30.9008 17.9789C31.0332 18.5945 30.9729 19.1966 30.769 19.7347C30.6064 20.1642 30.3527 20.5512 30.0336 20.8704C29.7144 21.1895 29.3274 21.4432 28.8979 21.6058C28.3417 21.8166 27.717 21.8734 27.0796 21.7229ZM29.665 16.7425L28.6701 15.7476C28.6463 15.7238 28.6276 15.6964 28.614 15.6674L23.8044 10.8578C23.7145 10.7679 23.627 10.6873 23.5423 10.6155C23.4527 10.5398 23.3616 10.4698 23.2699 10.4053L23.2602 10.3978C23.0316 10.2207 22.774 10.0804 22.4968 9.98601C22.2298 9.89522 21.946 9.84696 21.6537 9.84997H21.6495C21.3572 9.84696 21.0733 9.89522 20.8067 9.98601C20.5295 10.0804 20.2716 10.221 20.0429 10.3981L20.033 10.4056C19.9413 10.4701 19.8505 10.5401 19.7609 10.6158C19.6761 10.6876 19.5887 10.7682 19.4985 10.8581L16.1081 14.2485C16.718 14.1206 17.3143 14.1818 17.8476 14.3839C18.2771 14.5465 18.6641 14.8002 18.9833 15.1193C19.3024 15.4385 19.5561 15.8255 19.7187 16.255C19.9313 16.8163 19.9877 17.4471 19.8324 18.0902L21.016 16.9066C21.2401 16.6825 21.4579 16.5856 21.6923 16.6031C21.9155 16.6197 22.1209 16.7407 22.3345 16.9545L25.6214 20.2415C26.6473 21.2674 27.7909 21.43 28.7015 21.0849C29.0538 20.9516 29.3733 20.7416 29.6387 20.4759C29.9042 20.2104 30.1141 19.891 30.2477 19.5387C30.5612 18.7112 30.4559 17.6914 29.665 16.7425Z"/>
</mask>
<path d="M6.63092 15.7483C5.60505 14.7225 4.4615 14.5598 3.55084 14.9049C3.19852 15.0383 2.87909 15.2482 2.61362 15.514C2.34818 15.7794 2.13824 16.0988 2.00461 16.4512C1.65953 17.3618 1.82241 18.5054 2.84801 19.5313L8.44824 25.1315C8.53843 25.2217 8.62561 25.3022 8.71066 25.3737C8.80025 25.4494 8.89104 25.5194 8.98274 25.584L8.99239 25.5915C9.22103 25.7686 9.47864 25.9091 9.75585 26.0035C10.0228 26.0943 10.3063 26.1426 10.5986 26.1396H10.6028C10.8951 26.1426 11.179 26.0943 11.4459 26.0035C11.7231 25.9091 11.9807 25.7689 12.2094 25.5918L12.2193 25.5843C12.311 25.5197 12.4021 25.4497 12.4917 25.374C12.5765 25.3025 12.664 25.2217 12.7538 25.1318L18.3541 19.5316C19.3799 18.5057 19.5426 17.3621 19.1975 16.4515C19.0642 16.0992 18.8542 15.7797 18.5885 15.5143C18.323 15.2488 18.0036 15.0389 17.6512 14.9052C16.8441 14.5994 15.8535 14.6926 14.9244 15.4325L13.898 16.459C13.8681 16.4889 13.8331 16.5106 13.796 16.5239L11.284 19.0359C11.0701 19.2498 10.8647 19.3707 10.6418 19.3873C10.4074 19.4048 10.1896 19.3077 9.96549 19.0839L6.63092 15.7483ZM19.9029 5.94039C19.7976 5.82848 19.8031 5.65232 19.915 5.54704C20.0269 5.44177 20.2031 5.4472 20.3083 5.55911L20.3433 5.5944C20.6917 5.94672 21.1388 6.11926 21.5855 6.12076C22.0361 6.12227 22.4886 5.95215 22.8433 5.61913C22.8581 5.60526 22.8702 5.5938 22.8795 5.58445C22.9884 5.47616 23.1646 5.47646 23.2729 5.58565C23.3811 5.69455 23.3808 5.8707 23.2717 5.979C23.2536 5.99709 23.2379 6.01218 23.2246 6.02454C22.7634 6.4574 22.174 6.67881 21.5852 6.67669C20.9928 6.67458 20.4031 6.44865 19.9464 5.98684C19.9431 5.98352 19.9289 5.96784 19.9029 5.94039ZM32.7199 7.96139C33.7494 7.96139 34.6811 8.37856 35.356 9.05336C36.0308 9.72816 36.4479 10.6599 36.4479 11.6894C36.4479 12.7189 36.0308 13.6507 35.356 14.3255C34.6815 15.0003 33.7494 15.4175 32.7199 15.4175C31.6904 15.4175 30.7587 15.0003 30.0839 14.3255C29.4091 13.6507 28.9919 12.7189 28.9919 11.6894C28.9919 10.6599 29.409 9.72819 30.0839 9.05336C30.7586 8.37859 31.6904 7.96139 32.7199 7.96139ZM34.9614 9.44788C34.3877 8.87416 33.5953 8.51946 32.7199 8.51946C31.8445 8.51946 31.0521 8.87419 30.4784 9.44788C29.9047 10.0216 29.55 10.814 29.55 11.6893C29.55 12.5647 29.9048 13.3571 30.4784 13.9308C31.0522 14.5045 31.8445 14.8592 32.7199 14.8592C33.5953 14.8592 34.3877 14.5045 34.9614 13.9308C35.5351 13.3571 35.8898 12.5647 35.8898 11.6893C35.8898 10.814 35.5351 10.0215 34.9614 9.44788ZM10.8131 7.96139C11.8426 7.96139 12.7743 8.37856 13.4492 9.05336C14.124 9.72816 14.5411 10.6599 14.5411 11.6894C14.5411 12.7189 14.124 13.6507 13.4492 14.3255C12.7744 15.0003 11.8426 15.4175 10.8131 15.4175C9.78361 15.4175 8.85188 15.0003 8.17705 14.3255C7.50222 13.6507 7.08508 12.7189 7.08508 11.6894C7.08508 10.6599 7.50225 9.72819 8.17705 9.05336C8.85185 8.37853 9.78361 7.96139 10.8131 7.96139ZM13.0546 9.44788C12.4809 8.87416 11.6885 8.51946 10.8131 8.51946C9.93774 8.51946 9.14531 8.87419 8.57164 9.44788C7.99792 10.0216 7.64323 10.814 7.64323 11.6893C7.64323 12.5647 7.99796 13.3571 8.57164 13.9308C9.14537 14.5045 9.93774 14.8592 10.8131 14.8592C11.6885 14.8592 12.4809 14.5045 13.0546 13.9308C13.6283 13.3571 13.983 12.5647 13.983 11.6893C13.983 10.814 13.6283 10.0215 13.0546 9.44788ZM21.6384 1C22.6679 1 23.5996 1.41717 24.2744 2.09197C24.9492 2.76674 25.3664 3.69853 25.3664 4.72803C25.3664 5.75753 24.9492 6.68927 24.2744 7.36409C23.5996 8.03892 22.6679 8.45606 21.6384 8.45606C20.6089 8.45606 19.6771 8.0389 19.0023 7.36409C18.3275 6.68932 17.9103 5.75753 17.9103 4.72803C17.9103 3.69853 18.3275 2.7668 19.0023 2.09197C19.6771 1.4172 20.6089 1 21.6384 1ZM23.8798 2.48649C23.3061 1.91276 22.5137 1.55807 21.6384 1.55807C20.763 1.55807 19.9706 1.9128 19.3969 2.48649C18.8232 3.06021 18.4685 3.85259 18.4685 4.72795C18.4685 5.60332 18.8232 6.39575 19.3969 6.96942C19.9706 7.54314 20.763 7.89784 21.6384 7.89784C22.5137 7.89784 23.3062 7.54311 23.8798 6.96942C24.4535 6.39574 24.8083 5.60332 24.8083 4.72795C24.8083 3.85259 24.4535 3.06015 23.8798 2.48649ZM24.4928 19.9251C24.4689 19.9013 24.4502 19.8738 24.4367 19.8449L21.94 17.3482C21.8211 17.2293 21.7273 17.1636 21.6531 17.1581C21.5901 17.1533 21.5123 17.1989 21.4106 17.3005L18.0756 20.6355C18.0458 20.6654 18.0108 20.6871 17.9737 20.7004L13.1487 25.5254C13.0539 25.6201 12.955 25.7109 12.8515 25.7981C12.7481 25.8855 12.644 25.9658 12.5399 26.0388C12.2651 26.2496 11.9566 26.4173 11.625 26.5301C11.3032 26.6396 10.9584 26.6979 10.6009 26.6945C10.2438 26.6979 9.89902 26.6399 9.57715 26.5301C9.24565 26.4173 8.93677 26.2496 8.66194 26.0385C8.55787 25.9655 8.45411 25.8852 8.35065 25.7978C8.24749 25.7106 8.14825 25.6195 8.05353 25.5248L2.4533 19.9245C1.24882 18.7201 1.06697 17.3537 1.48349 16.2539C1.64608 15.8243 1.89975 15.4374 2.21889 15.1182C2.53802 14.7991 2.92503 14.5454 3.35456 14.3828C4.45433 13.9662 5.82082 14.1481 7.02522 15.3526L10.3602 18.6876C10.4616 18.7889 10.5397 18.8345 10.6027 18.83C10.6769 18.8245 10.771 18.7588 10.8896 18.6399L14.1768 15.3527C14.3008 15.2284 14.4269 15.1156 14.5539 15.0127L19.1039 10.4628C19.1986 10.3681 19.2978 10.2773 19.401 10.1898C19.5044 10.1023 19.6085 10.0221 19.7123 9.94908C19.9871 9.73823 20.2956 9.57052 20.6275 9.4577C20.9493 9.34821 21.2938 9.28999 21.6513 9.29331C22.0087 9.28999 22.3532 9.34821 22.6754 9.4577C23.0069 9.57051 23.3154 9.73823 23.5903 9.94908C23.6943 10.0221 23.7984 10.1023 23.9019 10.1898C24.005 10.277 24.1043 10.3681 24.199 10.4625L29.7992 16.0627C29.8994 16.1628 29.9923 16.2639 30.0782 16.3659L32.3996 18.6872C32.501 18.7886 32.5791 18.8341 32.6421 18.8296C32.7163 18.8242 32.8104 18.7584 32.929 18.6396L36.2159 15.3523C37.4204 14.1479 38.7868 13.966 39.8866 14.3825C40.3161 14.5451 40.7028 14.7988 41.0223 15.1179C41.3414 15.4371 41.5951 15.8241 41.7577 16.2536C42.1742 17.3534 41.9923 18.7199 40.7879 19.9243L35.1876 25.5245C35.0929 25.6192 34.994 25.71 34.8905 25.7972C34.7871 25.8846 34.683 25.9649 34.5789 26.0379C34.3041 26.2487 33.9955 26.4164 33.664 26.5293C33.3422 26.6388 32.9974 26.697 32.6399 26.6936C32.2828 26.697 31.938 26.639 31.6161 26.5293C31.2846 26.4164 30.9757 26.2487 30.7009 26.0376C30.5969 25.9646 30.4931 25.8843 30.3896 25.7969C30.2862 25.7094 30.1872 25.6186 30.0925 25.5239L24.4923 19.9236L24.4928 19.9251ZM27.0796 21.7229L30.4876 25.1308C30.5778 25.221 30.665 25.3015 30.75 25.373C30.8396 25.4487 30.9304 25.5187 31.0221 25.5833L31.0321 25.5908C31.2607 25.7679 31.5183 25.9085 31.7955 26.0029C32.0625 26.0937 32.346 26.1419 32.6383 26.1389H32.6425C32.9348 26.1419 33.2186 26.0937 33.4856 26.0029C33.7628 25.9084 34.0204 25.7682 34.2491 25.5911L34.259 25.5836C34.3507 25.519 34.4418 25.449 34.5314 25.3733C34.6161 25.3018 34.7036 25.221 34.7935 25.1311L40.3937 19.5309C41.4196 18.505 41.5822 17.3615 41.2371 16.4508C41.1038 16.0985 40.8939 15.7791 40.6281 15.5136C40.3627 15.2481 40.0432 15.0382 39.6909 14.9046C38.7802 14.5595 37.6367 14.7224 36.6108 15.748L33.3236 19.0352C33.1097 19.2491 32.9043 19.3701 32.6814 19.3866C32.447 19.4041 32.2292 19.307 32.0051 19.0832L30.9008 17.9789C31.0332 18.5945 30.9729 19.1966 30.769 19.7347C30.6064 20.1642 30.3527 20.5512 30.0336 20.8704C29.7144 21.1895 29.3274 21.4432 28.8979 21.6058C28.3417 21.8166 27.717 21.8734 27.0796 21.7229ZM29.665 16.7425L28.6701 15.7476C28.6463 15.7238 28.6276 15.6964 28.614 15.6674L23.8044 10.8578C23.7145 10.7679 23.627 10.6873 23.5423 10.6155C23.4527 10.5398 23.3616 10.4698 23.2699 10.4053L23.2602 10.3978C23.0316 10.2207 22.774 10.0804 22.4968 9.98601C22.2298 9.89522 21.946 9.84696 21.6537 9.84997H21.6495C21.3572 9.84696 21.0733 9.89522 20.8067 9.98601C20.5295 10.0804 20.2716 10.221 20.0429 10.3981L20.033 10.4056C19.9413 10.4701 19.8505 10.5401 19.7609 10.6158C19.6761 10.6876 19.5887 10.7682 19.4985 10.8581L16.1081 14.2485C16.718 14.1206 17.3143 14.1818 17.8476 14.3839C18.2771 14.5465 18.6641 14.8002 18.9833 15.1193C19.3024 15.4385 19.5561 15.8255 19.7187 16.255C19.9313 16.8163 19.9877 17.4471 19.8324 18.0902L21.016 16.9066C21.2401 16.6825 21.4579 16.5856 21.6923 16.6031C21.9155 16.6197 22.1209 16.7407 22.3345 16.9545L25.6214 20.2415C26.6473 21.2674 27.7909 21.43 28.7015 21.0849C29.0538 20.9516 29.3733 20.7416 29.6387 20.4759C29.9042 20.2104 30.1141 19.891 30.2477 19.5387C30.5612 18.7112 30.4559 17.6914 29.665 16.7425Z" fill="#084EB7"/>
<path d="M6.63092 15.7483C5.60505 14.7225 4.4615 14.5598 3.55084 14.9049C3.19852 15.0383 2.87909 15.2482 2.61362 15.514C2.34818 15.7794 2.13824 16.0988 2.00461 16.4512C1.65953 17.3618 1.82241 18.5054 2.84801 19.5313L8.44824 25.1315C8.53843 25.2217 8.62561 25.3022 8.71066 25.3737C8.80025 25.4494 8.89104 25.5194 8.98274 25.584L8.99239 25.5915C9.22103 25.7686 9.47864 25.9091 9.75585 26.0035C10.0228 26.0943 10.3063 26.1426 10.5986 26.1396H10.6028C10.8951 26.1426 11.179 26.0943 11.4459 26.0035C11.7231 25.9091 11.9807 25.7689 12.2094 25.5918L12.2193 25.5843C12.311 25.5197 12.4021 25.4497 12.4917 25.374C12.5765 25.3025 12.664 25.2217 12.7538 25.1318L18.3541 19.5316C19.3799 18.5057 19.5426 17.3621 19.1975 16.4515C19.0642 16.0992 18.8542 15.7797 18.5885 15.5143C18.323 15.2488 18.0036 15.0389 17.6512 14.9052C16.8441 14.5994 15.8535 14.6926 14.9244 15.4325L13.898 16.459C13.8681 16.4889 13.8331 16.5106 13.796 16.5239L11.284 19.0359C11.0701 19.2498 10.8647 19.3707 10.6418 19.3873C10.4074 19.4048 10.1896 19.3077 9.96549 19.0839L6.63092 15.7483ZM19.9029 5.94039C19.7976 5.82848 19.8031 5.65232 19.915 5.54704C20.0269 5.44177 20.2031 5.4472 20.3083 5.55911L20.3433 5.5944C20.6917 5.94672 21.1388 6.11926 21.5855 6.12076C22.0361 6.12227 22.4886 5.95215 22.8433 5.61913C22.8581 5.60526 22.8702 5.5938 22.8795 5.58445C22.9884 5.47616 23.1646 5.47646 23.2729 5.58565C23.3811 5.69455 23.3808 5.8707 23.2717 5.979C23.2536 5.99709 23.2379 6.01218 23.2246 6.02454C22.7634 6.4574 22.174 6.67881 21.5852 6.67669C20.9928 6.67458 20.4031 6.44865 19.9464 5.98684C19.9431 5.98352 19.9289 5.96784 19.9029 5.94039ZM32.7199 7.96139C33.7494 7.96139 34.6811 8.37856 35.356 9.05336C36.0308 9.72816 36.4479 10.6599 36.4479 11.6894C36.4479 12.7189 36.0308 13.6507 35.356 14.3255C34.6815 15.0003 33.7494 15.4175 32.7199 15.4175C31.6904 15.4175 30.7587 15.0003 30.0839 14.3255C29.4091 13.6507 28.9919 12.7189 28.9919 11.6894C28.9919 10.6599 29.409 9.72819 30.0839 9.05336C30.7586 8.37859 31.6904 7.96139 32.7199 7.96139ZM34.9614 9.44788C34.3877 8.87416 33.5953 8.51946 32.7199 8.51946C31.8445 8.51946 31.0521 8.87419 30.4784 9.44788C29.9047 10.0216 29.55 10.814 29.55 11.6893C29.55 12.5647 29.9048 13.3571 30.4784 13.9308C31.0522 14.5045 31.8445 14.8592 32.7199 14.8592C33.5953 14.8592 34.3877 14.5045 34.9614 13.9308C35.5351 13.3571 35.8898 12.5647 35.8898 11.6893C35.8898 10.814 35.5351 10.0215 34.9614 9.44788ZM10.8131 7.96139C11.8426 7.96139 12.7743 8.37856 13.4492 9.05336C14.124 9.72816 14.5411 10.6599 14.5411 11.6894C14.5411 12.7189 14.124 13.6507 13.4492 14.3255C12.7744 15.0003 11.8426 15.4175 10.8131 15.4175C9.78361 15.4175 8.85188 15.0003 8.17705 14.3255C7.50222 13.6507 7.08508 12.7189 7.08508 11.6894C7.08508 10.6599 7.50225 9.72819 8.17705 9.05336C8.85185 8.37853 9.78361 7.96139 10.8131 7.96139ZM13.0546 9.44788C12.4809 8.87416 11.6885 8.51946 10.8131 8.51946C9.93774 8.51946 9.14531 8.87419 8.57164 9.44788C7.99792 10.0216 7.64323 10.814 7.64323 11.6893C7.64323 12.5647 7.99796 13.3571 8.57164 13.9308C9.14537 14.5045 9.93774 14.8592 10.8131 14.8592C11.6885 14.8592 12.4809 14.5045 13.0546 13.9308C13.6283 13.3571 13.983 12.5647 13.983 11.6893C13.983 10.814 13.6283 10.0215 13.0546 9.44788ZM21.6384 1C22.6679 1 23.5996 1.41717 24.2744 2.09197C24.9492 2.76674 25.3664 3.69853 25.3664 4.72803C25.3664 5.75753 24.9492 6.68927 24.2744 7.36409C23.5996 8.03892 22.6679 8.45606 21.6384 8.45606C20.6089 8.45606 19.6771 8.0389 19.0023 7.36409C18.3275 6.68932 17.9103 5.75753 17.9103 4.72803C17.9103 3.69853 18.3275 2.7668 19.0023 2.09197C19.6771 1.4172 20.6089 1 21.6384 1ZM23.8798 2.48649C23.3061 1.91276 22.5137 1.55807 21.6384 1.55807C20.763 1.55807 19.9706 1.9128 19.3969 2.48649C18.8232 3.06021 18.4685 3.85259 18.4685 4.72795C18.4685 5.60332 18.8232 6.39575 19.3969 6.96942C19.9706 7.54314 20.763 7.89784 21.6384 7.89784C22.5137 7.89784 23.3062 7.54311 23.8798 6.96942C24.4535 6.39574 24.8083 5.60332 24.8083 4.72795C24.8083 3.85259 24.4535 3.06015 23.8798 2.48649ZM24.4928 19.9251C24.4689 19.9013 24.4502 19.8738 24.4367 19.8449L21.94 17.3482C21.8211 17.2293 21.7273 17.1636 21.6531 17.1581C21.5901 17.1533 21.5123 17.1989 21.4106 17.3005L18.0756 20.6355C18.0458 20.6654 18.0108 20.6871 17.9737 20.7004L13.1487 25.5254C13.0539 25.6201 12.955 25.7109 12.8515 25.7981C12.7481 25.8855 12.644 25.9658 12.5399 26.0388C12.2651 26.2496 11.9566 26.4173 11.625 26.5301C11.3032 26.6396 10.9584 26.6979 10.6009 26.6945C10.2438 26.6979 9.89902 26.6399 9.57715 26.5301C9.24565 26.4173 8.93677 26.2496 8.66194 26.0385C8.55787 25.9655 8.45411 25.8852 8.35065 25.7978C8.24749 25.7106 8.14825 25.6195 8.05353 25.5248L2.4533 19.9245C1.24882 18.7201 1.06697 17.3537 1.48349 16.2539C1.64608 15.8243 1.89975 15.4374 2.21889 15.1182C2.53802 14.7991 2.92503 14.5454 3.35456 14.3828C4.45433 13.9662 5.82082 14.1481 7.02522 15.3526L10.3602 18.6876C10.4616 18.7889 10.5397 18.8345 10.6027 18.83C10.6769 18.8245 10.771 18.7588 10.8896 18.6399L14.1768 15.3527C14.3008 15.2284 14.4269 15.1156 14.5539 15.0127L19.1039 10.4628C19.1986 10.3681 19.2978 10.2773 19.401 10.1898C19.5044 10.1023 19.6085 10.0221 19.7123 9.94908C19.9871 9.73823 20.2956 9.57052 20.6275 9.4577C20.9493 9.34821 21.2938 9.28999 21.6513 9.29331C22.0087 9.28999 22.3532 9.34821 22.6754 9.4577C23.0069 9.57051 23.3154 9.73823 23.5903 9.94908C23.6943 10.0221 23.7984 10.1023 23.9019 10.1898C24.005 10.277 24.1043 10.3681 24.199 10.4625L29.7992 16.0627C29.8994 16.1628 29.9923 16.2639 30.0782 16.3659L32.3996 18.6872C32.501 18.7886 32.5791 18.8341 32.6421 18.8296C32.7163 18.8242 32.8104 18.7584 32.929 18.6396L36.2159 15.3523C37.4204 14.1479 38.7868 13.966 39.8866 14.3825C40.3161 14.5451 40.7028 14.7988 41.0223 15.1179C41.3414 15.4371 41.5951 15.8241 41.7577 16.2536C42.1742 17.3534 41.9923 18.7199 40.7879 19.9243L35.1876 25.5245C35.0929 25.6192 34.994 25.71 34.8905 25.7972C34.7871 25.8846 34.683 25.9649 34.5789 26.0379C34.3041 26.2487 33.9955 26.4164 33.664 26.5293C33.3422 26.6388 32.9974 26.697 32.6399 26.6936C32.2828 26.697 31.938 26.639 31.6161 26.5293C31.2846 26.4164 30.9757 26.2487 30.7009 26.0376C30.5969 25.9646 30.4931 25.8843 30.3896 25.7969C30.2862 25.7094 30.1872 25.6186 30.0925 25.5239L24.4923 19.9236L24.4928 19.9251ZM27.0796 21.7229L30.4876 25.1308C30.5778 25.221 30.665 25.3015 30.75 25.373C30.8396 25.4487 30.9304 25.5187 31.0221 25.5833L31.0321 25.5908C31.2607 25.7679 31.5183 25.9085 31.7955 26.0029C32.0625 26.0937 32.346 26.1419 32.6383 26.1389H32.6425C32.9348 26.1419 33.2186 26.0937 33.4856 26.0029C33.7628 25.9084 34.0204 25.7682 34.2491 25.5911L34.259 25.5836C34.3507 25.519 34.4418 25.449 34.5314 25.3733C34.6161 25.3018 34.7036 25.221 34.7935 25.1311L40.3937 19.5309C41.4196 18.505 41.5822 17.3615 41.2371 16.4508C41.1038 16.0985 40.8939 15.7791 40.6281 15.5136C40.3627 15.2481 40.0432 15.0382 39.6909 14.9046C38.7802 14.5595 37.6367 14.7224 36.6108 15.748L33.3236 19.0352C33.1097 19.2491 32.9043 19.3701 32.6814 19.3866C32.447 19.4041 32.2292 19.307 32.0051 19.0832L30.9008 17.9789C31.0332 18.5945 30.9729 19.1966 30.769 19.7347C30.6064 20.1642 30.3527 20.5512 30.0336 20.8704C29.7144 21.1895 29.3274 21.4432 28.8979 21.6058C28.3417 21.8166 27.717 21.8734 27.0796 21.7229ZM29.665 16.7425L28.6701 15.7476C28.6463 15.7238 28.6276 15.6964 28.614 15.6674L23.8044 10.8578C23.7145 10.7679 23.627 10.6873 23.5423 10.6155C23.4527 10.5398 23.3616 10.4698 23.2699 10.4053L23.2602 10.3978C23.0316 10.2207 22.774 10.0804 22.4968 9.98601C22.2298 9.89522 21.946 9.84696 21.6537 9.84997H21.6495C21.3572 9.84696 21.0733 9.89522 20.8067 9.98601C20.5295 10.0804 20.2716 10.221 20.0429 10.3981L20.033 10.4056C19.9413 10.4701 19.8505 10.5401 19.7609 10.6158C19.6761 10.6876 19.5887 10.7682 19.4985 10.8581L16.1081 14.2485C16.718 14.1206 17.3143 14.1818 17.8476 14.3839C18.2771 14.5465 18.6641 14.8002 18.9833 15.1193C19.3024 15.4385 19.5561 15.8255 19.7187 16.255C19.9313 16.8163 19.9877 17.4471 19.8324 18.0902L21.016 16.9066C21.2401 16.6825 21.4579 16.5856 21.6923 16.6031C21.9155 16.6197 22.1209 16.7407 22.3345 16.9545L25.6214 20.2415C26.6473 21.2674 27.7909 21.43 28.7015 21.0849C29.0538 20.9516 29.3733 20.7416 29.6387 20.4759C29.9042 20.2104 30.1141 19.891 30.2477 19.5387C30.5612 18.7112 30.4559 17.6914 29.665 16.7425Z" stroke="#084EB7" stroke-width="0.8" mask="url(#path-1-outside-1_38_19)"/>
</svg>
