<svg width="144" height="48" viewBox="0 0 144 48" fill="none" xmlns="http://www.w3.org/2000/svg">
<rect x="0.5" y="0.5" width="143" height="47" rx="6.5" fill="black"/>
<rect x="0.5" y="0.5" width="143" height="47" rx="6.5" stroke="#A6A6A6"/>
<path d="M97.832 23.0412V25.7904H96.1087V27.5933H97.832V33.7193C97.832 35.8111 98.7783 36.6478 101.159 36.6478C101.577 36.6478 101.976 36.598 102.324 36.5382V34.7552C102.026 34.7851 101.836 34.805 101.508 34.805C100.442 34.805 99.9736 34.307 99.9736 33.1715V27.5933H102.324V25.7904H99.9736V23.0412H97.832Z" fill="white"/>
<path d="M108.389 36.7972C111.557 36.7972 113.499 34.6756 113.499 31.1593C113.499 27.6631 111.547 25.5314 108.389 25.5314C105.221 25.5314 103.269 27.6631 103.269 31.1593C103.269 34.6756 105.211 36.7972 108.389 36.7972ZM108.389 34.8947C106.526 34.8947 105.48 33.53 105.48 31.1593C105.48 28.8086 106.526 27.434 108.389 27.434C110.242 27.434 111.298 28.8086 111.298 31.1593C111.298 33.5201 110.242 34.8947 108.389 34.8947Z" fill="white"/>
<path d="M115.161 36.5881H117.302V30.1832C117.302 28.6591 118.448 27.6332 120.072 27.6332C120.45 27.6332 121.088 27.7029 121.267 27.7627V25.6509C121.038 25.5912 120.629 25.5613 120.311 25.5613C118.896 25.5613 117.691 26.3382 117.382 27.4041H117.223V25.7406H115.161V36.5881Z" fill="white"/>
<path d="M126.584 27.3543C128.168 27.3543 129.204 28.4599 129.254 30.1632H123.775C123.895 28.4699 125.001 27.3543 126.584 27.3543ZM129.244 33.6595C128.846 34.5062 127.959 34.9744 126.664 34.9744C124.951 34.9744 123.845 33.7691 123.775 31.8666V31.747H131.435V31C131.435 27.5933 129.613 25.5314 126.594 25.5314C123.536 25.5314 121.594 27.7328 121.594 31.1992C121.594 34.6656 123.497 36.7972 126.604 36.7972C129.085 36.7972 130.818 35.6019 131.306 33.6595H129.244Z" fill="white"/>
<path d="M83.7877 32.5823C83.9529 35.2459 86.1726 36.9494 89.4763 36.9494C93.0072 36.9494 95.2166 35.1633 95.2166 32.3138C95.2166 30.0735 93.957 28.8346 90.9011 28.1222L89.2595 27.7195C87.3186 27.2653 86.5339 26.6562 86.5339 25.5928C86.5339 24.2506 87.7522 23.3731 89.5796 23.3731C91.314 23.3731 92.5117 24.23 92.7285 25.6031H94.9791C94.8449 23.0943 92.6355 21.3289 89.6105 21.3289C86.3584 21.3289 84.1903 23.0943 84.1903 25.7476C84.1903 27.9364 85.4189 29.2372 88.1135 29.867L90.0338 30.3316C92.0058 30.7962 92.873 31.4776 92.873 32.6132C92.873 33.9347 91.5102 34.8949 89.6518 34.8949C87.6593 34.8949 86.2758 33.9967 86.0797 32.5823H83.7877Z" fill="white"/>
<path d="M61.6029 25.5613C60.1287 25.5613 58.8537 26.2984 58.1962 27.5336H58.0369V25.7406H55.975V40.1939H58.1166V34.9445H58.2859C58.8537 36.09 60.0789 36.7673 61.6228 36.7673C64.3621 36.7673 66.1052 34.6058 66.1052 31.1593C66.1052 27.7129 64.3621 25.5613 61.6029 25.5613ZM60.9953 34.8449C59.2023 34.8449 58.0767 33.4304 58.0767 31.1693C58.0767 28.8982 59.2023 27.4838 61.0052 27.4838C62.8181 27.4838 63.9039 28.8683 63.9039 31.1593C63.9039 33.4603 62.8181 34.8449 60.9953 34.8449Z" fill="white"/>
<path d="M73.599 25.5613C72.1248 25.5613 70.8498 26.2984 70.1924 27.5336H70.033V25.7406H67.9711V40.1939H70.1127V34.9445H70.2821C70.8498 36.09 72.075 36.7673 73.619 36.7673C76.3582 36.7673 78.1014 34.6058 78.1014 31.1593C78.1014 27.7129 76.3582 25.5613 73.599 25.5613ZM72.9914 34.8449C71.1985 34.8449 70.0729 33.4304 70.0729 31.1693C70.0729 28.8982 71.1985 27.4838 73.0014 27.4838C74.8143 27.4838 75.9 28.8683 75.9 31.1593C75.9 33.4603 74.8143 34.8449 72.9914 34.8449Z" fill="white"/>
<path d="M52.1326 36.5881H54.5897L49.2108 21.6902H46.7227L41.3438 36.5881H43.7183L45.0914 32.6339H50.7698L52.1326 36.5881ZM47.848 24.3952H48.0235L50.1813 30.6929H45.6799L47.848 24.3952Z" fill="white"/>
<path d="M42.7812 10.4532V17.64H45.3761C47.5177 17.64 48.7578 16.3202 48.7578 14.0242C48.7578 11.7631 47.5077 10.4532 45.3761 10.4532H42.7812ZM43.8969 11.4692H45.2516C46.7407 11.4692 47.6223 12.4155 47.6223 14.0392C47.6223 15.6877 46.7557 16.624 45.2516 16.624H43.8969V11.4692Z" fill="white"/>
<path d="M52.5559 17.7446C54.1397 17.7446 55.1109 16.6838 55.1109 14.9257C55.1109 13.1775 54.1347 12.1117 52.5559 12.1117C50.9721 12.1117 49.996 13.1775 49.996 14.9257C49.996 16.6838 50.9671 17.7446 52.5559 17.7446ZM52.5559 16.7934C51.6246 16.7934 51.1016 16.111 51.1016 14.9257C51.1016 13.7503 51.6246 13.063 52.5559 13.063C53.4823 13.063 54.0102 13.7503 54.0102 14.9257C54.0102 16.1061 53.4823 16.7934 52.5559 16.7934Z" fill="white"/>
<path d="M63.3815 12.2163H62.3107L61.3445 16.3551H61.2598L60.1442 12.2163H59.1182L58.0026 16.3551H57.9229L56.9517 12.2163H55.8659L57.3601 17.64H58.4608L59.5764 13.6457H59.6611L60.7817 17.64H61.8923L63.3815 12.2163Z" fill="white"/>
<path d="M64.6146 17.64H65.6854V14.4675C65.6854 13.6208 66.1885 13.0929 66.9804 13.0929C67.7722 13.0929 68.1508 13.5262 68.1508 14.3978V17.64H69.2216V14.1288C69.2216 12.8389 68.5542 12.1117 67.3439 12.1117C66.5271 12.1117 65.9892 12.4753 65.7253 13.0779H65.6456V12.2163H64.6146V17.64Z" fill="white"/>
<path d="M70.9079 17.64H71.9788V10.0996H70.9079V17.64Z" fill="white"/>
<path d="M76.006 17.7446C77.5897 17.7446 78.5609 16.6838 78.5609 14.9257C78.5609 13.1775 77.5848 12.1117 76.006 12.1117C74.4222 12.1117 73.446 13.1775 73.446 14.9257C73.446 16.6838 74.4172 17.7446 76.006 17.7446ZM76.006 16.7934C75.0746 16.7934 74.5517 16.111 74.5517 14.9257C74.5517 13.7503 75.0746 13.063 76.006 13.063C76.9323 13.063 77.4603 13.7503 77.4603 14.9257C77.4603 16.1061 76.9323 16.7934 76.006 16.7934Z" fill="white"/>
<path d="M81.7514 16.8282C81.1687 16.8282 80.7454 16.5443 80.7454 16.0562C80.7454 15.5781 81.084 15.3241 81.8311 15.2743L83.1559 15.1896V15.6429C83.1559 16.3152 82.5583 16.8282 81.7514 16.8282ZM81.4775 17.7297C82.1897 17.7297 82.7824 17.4209 83.1061 16.878H83.1908V17.64H84.2217V13.9346C84.2217 12.7891 83.4547 12.1117 82.0951 12.1117C80.8649 12.1117 79.9883 12.7094 79.8788 13.6407H80.9147C81.0342 13.2572 81.4476 13.0381 82.0453 13.0381C82.7774 13.0381 83.1559 13.3618 83.1559 13.9346V14.4027L81.6867 14.4874C80.3967 14.5671 79.6696 15.1299 79.6696 16.1061C79.6696 17.0972 80.4316 17.7297 81.4775 17.7297Z" fill="white"/>
<path d="M87.8555 17.7297C88.6026 17.7297 89.2351 17.3761 89.5588 16.7834H89.6435V17.64H90.6695V10.0996H89.5987V13.0779H89.519C89.2251 12.4803 88.5976 12.1267 87.8555 12.1267C86.4859 12.1267 85.6043 13.2124 85.6043 14.9257C85.6043 16.6439 86.4759 17.7297 87.8555 17.7297ZM88.1593 13.0879C89.0558 13.0879 89.6186 13.8001 89.6186 14.9307C89.6186 16.0662 89.0608 16.7685 88.1593 16.7685C87.2528 16.7685 86.71 16.0762 86.71 14.9257C86.71 13.7852 87.2578 13.0879 88.1593 13.0879Z" fill="white"/>
<path d="M97.6132 17.7446C99.197 17.7446 100.168 16.6838 100.168 14.9257C100.168 13.1775 99.192 12.1117 97.6132 12.1117C96.0294 12.1117 95.0533 13.1775 95.0533 14.9257C95.0533 16.6838 96.0245 17.7446 97.6132 17.7446ZM97.6132 16.7934C96.6819 16.7934 96.1589 16.111 96.1589 14.9257C96.1589 13.7503 96.6819 13.063 97.6132 13.063C98.5396 13.063 99.0675 13.7503 99.0675 14.9257C99.0675 16.1061 98.5396 16.7934 97.6132 16.7934Z" fill="white"/>
<path d="M101.586 17.64H102.656V14.4675C102.656 13.6208 103.159 13.0929 103.951 13.0929C104.743 13.0929 105.122 13.5262 105.122 14.3978V17.64H106.193V14.1288C106.193 12.8389 105.525 12.1117 104.315 12.1117C103.498 12.1117 102.96 12.4753 102.696 13.0779H102.617V12.2163H101.586V17.64Z" fill="white"/>
<path d="M111.124 10.8666V12.2412H110.263V13.1427H111.124V16.2057C111.124 17.2516 111.597 17.6699 112.788 17.6699C112.997 17.6699 113.196 17.645 113.37 17.6151V16.7236C113.221 16.7386 113.126 16.7485 112.962 16.7485C112.429 16.7485 112.195 16.4995 112.195 15.9317V13.1427H113.37V12.2412H112.195V10.8666H111.124Z" fill="white"/>
<path d="M114.808 17.64H115.879V14.4725C115.879 13.6507 116.367 13.0979 117.243 13.0979C118 13.0979 118.404 13.5361 118.404 14.4027V17.64H119.474V14.1388C119.474 12.8488 118.762 12.1167 117.607 12.1167C116.79 12.1167 116.217 12.4803 115.953 13.0879H115.869V10.0996H114.808V17.64Z" fill="white"/>
<path d="M123.337 13.0231C124.129 13.0231 124.647 13.576 124.672 14.4276H121.933C121.993 13.581 122.545 13.0231 123.337 13.0231ZM124.667 16.1758C124.468 16.5991 124.025 16.8332 123.377 16.8332C122.521 16.8332 121.968 16.2306 121.933 15.2793V15.2195H125.763V14.846C125.763 13.1427 124.851 12.1117 123.342 12.1117C121.813 12.1117 120.842 13.2124 120.842 14.9456C120.842 16.6788 121.793 17.7446 123.347 17.7446C124.587 17.7446 125.454 17.147 125.698 16.1758H124.667Z" fill="white"/>
<path d="M29.7216 24.361C29.7476 22.3438 30.8309 20.4351 32.5495 19.3786C31.4653 17.8302 29.6494 16.8485 27.7601 16.7893C25.745 16.5778 23.7915 17.9951 22.7646 17.9951C21.7179 17.9951 20.1369 16.8103 18.4344 16.8454C16.2153 16.9171 14.1466 18.1787 13.0669 20.1188C10.7461 24.1369 12.4772 30.0422 14.7004 33.2901C15.8126 34.8805 17.1126 36.6571 18.8135 36.5941C20.478 36.525 21.0996 35.5327 23.1088 35.5327C25.0993 35.5327 25.6825 36.5941 27.418 36.554C29.204 36.525 30.3293 34.9565 31.4026 33.351C32.2018 32.2178 32.8167 30.9653 33.2247 29.64C31.1258 28.7523 29.7241 26.64 29.7216 24.361Z" fill="white"/>
<path d="M26.4436 14.6533C27.4175 13.4843 27.8972 11.9817 27.781 10.4646C26.2932 10.6209 24.9189 11.3319 23.9319 12.4561C22.9668 13.5545 22.4645 15.0307 22.5595 16.4898C24.0478 16.5051 25.511 15.8133 26.4436 14.6533Z" fill="white"/>
</svg>
