<svg width="65" height="64" viewBox="0 0 65 64" fill="none" xmlns="http://www.w3.org/2000/svg">
<ellipse cx="32.5" cy="32" rx="32.5" ry="32" fill="white"/>
<path d="M64.5 32C64.5 49.3897 50.1804 63.5 32.5 63.5C14.8196 63.5 0.5 49.3897 0.5 32C0.5 14.6103 14.8196 0.5 32.5 0.5C50.1804 0.5 64.5 14.6103 64.5 32Z" stroke="black" stroke-opacity="0.3"/>
<path d="M39.4951 32.831C39.521 30.8138 40.6044 28.9051 42.3229 27.8485C41.2388 26.3001 39.4228 25.3184 37.5335 25.2593C35.5184 25.0478 33.5649 26.4651 32.5381 26.4651C31.4913 26.4651 29.9103 25.2803 28.2079 25.3153C25.9888 25.387 23.92 26.6487 22.8404 28.5888C20.5196 32.6069 22.2507 38.5121 24.4738 41.7601C25.5861 43.3505 26.886 45.127 28.5869 45.064C30.2514 44.995 30.8731 44.0027 32.8822 44.0027C34.8727 44.0027 35.456 45.064 37.1914 45.024C38.9775 44.995 40.1028 43.4265 41.176 41.821C41.9752 40.6878 42.5902 39.4353 42.9981 38.11C40.8992 37.2223 39.4975 35.11 39.4951 32.831Z" fill="black"/>
<path d="M36.2171 23.1233C37.1909 21.9543 37.6707 20.4516 37.5545 18.9346C36.0667 19.0908 34.6924 19.8019 33.7054 20.9261C32.7402 22.0245 32.238 23.5007 32.3329 24.9598C33.8213 24.9751 35.2844 24.2833 36.2171 23.1233Z" fill="black"/>
</svg>
