<svg width="162" height="48" viewBox="0 0 162 48" fill="none" xmlns="http://www.w3.org/2000/svg">
<rect x="0.5" y="0.5" width="161" height="47" rx="4.5" fill="black"/>
<rect x="0.5" y="0.5" width="161" height="47" rx="4.5" stroke="#A6A6A6"/>
<path d="M81.7628 26.1013C78.9404 26.1013 76.64 28.2481 76.64 31.2049C76.64 34.1437 78.9404 36.3085 81.7628 36.3085C84.5864 36.3085 86.8868 34.1437 86.8868 31.2049C86.8856 28.2481 84.5852 26.1013 81.7628 26.1013ZM81.7628 34.2997C80.216 34.2997 78.8828 33.0241 78.8828 31.2061C78.8828 29.3689 80.2172 28.1125 81.7628 28.1125C83.3096 28.1125 84.6428 29.3689 84.6428 31.2061C84.6428 33.0229 83.3096 34.2997 81.7628 34.2997ZM70.586 26.1013C67.7636 26.1013 65.4632 28.2481 65.4632 31.2049C65.4632 34.1437 67.7636 36.3085 70.586 36.3085C73.4096 36.3085 75.71 34.1437 75.71 31.2049C75.71 28.2481 73.4096 26.1013 70.586 26.1013ZM70.586 34.2997C69.0392 34.2997 67.706 33.0241 67.706 31.2061C67.706 29.3689 69.0404 28.1125 70.586 28.1125C72.1328 28.1125 73.466 29.3689 73.466 31.2061C73.4672 33.0229 72.1328 34.2997 70.586 34.2997ZM57.2924 27.6685V29.8333H62.474C62.3192 31.0513 61.9136 31.9405 61.2944 32.5585C60.5408 33.3121 59.3612 34.1437 57.2924 34.1437C54.1028 34.1437 51.6092 31.5721 51.6092 28.3825C51.6092 25.1929 54.1028 22.6213 57.2924 22.6213C59.0132 22.6213 60.2696 23.2981 61.1972 24.1681L62.7248 22.6405C61.4288 21.4033 59.7092 20.4565 57.2924 20.4565C52.9232 20.4565 49.25 24.0133 49.25 28.3825C49.25 32.7517 52.9232 36.3085 57.2924 36.3085C59.6504 36.3085 61.43 35.5345 62.8208 34.0849C64.2512 32.6545 64.6964 30.6433 64.6964 29.0197C64.6964 28.5181 64.658 28.0537 64.58 27.6673H57.2924V27.6685ZM111.662 29.3497C111.237 28.2097 109.941 26.1013 107.293 26.1013C104.664 26.1013 102.478 28.1701 102.478 31.2049C102.478 34.0657 104.644 36.3085 107.544 36.3085C109.882 36.3085 111.236 34.8781 111.798 34.0465L110.058 32.8861C109.478 33.7369 108.685 34.2973 107.544 34.2973C106.404 34.2973 105.591 33.7753 105.069 32.7505L111.894 29.9281L111.662 29.3497ZM104.702 31.0513C104.644 29.0785 106.23 28.0741 107.371 28.0741C108.26 28.0741 109.014 28.5193 109.266 29.1565L104.702 31.0513ZM99.1544 36.0001H101.396V20.9989H99.1544V36.0001ZM95.48 27.2425H95.4032C94.9004 26.6425 93.9332 26.1013 92.7164 26.1013C90.164 26.1013 87.8252 28.3441 87.8252 31.2253C87.8252 34.0861 90.164 36.3097 92.7164 36.3097C93.9344 36.3097 94.9004 35.7685 95.4032 35.1505H95.48V35.8849C95.48 37.8373 94.436 38.8813 92.7548 38.8813C91.382 38.8813 90.5312 37.8961 90.1832 37.0645L88.2308 37.8769C88.7912 39.2293 90.2792 40.8925 92.7548 40.8925C95.384 40.8925 97.6076 39.3457 97.6076 35.5753V26.4121H95.4812V27.2425H95.48ZM92.9096 34.2997C91.3628 34.2997 90.068 33.0037 90.068 31.2253C90.068 29.4265 91.3628 28.1125 92.9096 28.1125C94.436 28.1125 95.6348 29.4265 95.6348 31.2253C95.6348 33.0037 94.436 34.2997 92.9096 34.2997ZM122.167 20.9989H116.802V36.0001H119.04V30.3169H122.166C124.647 30.3169 127.088 28.5205 127.088 25.6585C127.088 22.7965 124.648 20.9989 122.167 20.9989ZM122.224 28.2289H119.04V23.0869H122.224C123.898 23.0869 124.849 24.4729 124.849 25.6585C124.849 26.8201 123.898 28.2289 122.224 28.2289ZM136.063 26.0749C134.442 26.0749 132.763 26.7889 132.068 28.3717L134.055 29.2009C134.48 28.3717 135.272 28.1005 136.101 28.1005C137.259 28.1005 138.436 28.7953 138.456 30.0301V30.1849C138.05 29.9533 137.181 29.6065 136.12 29.6065C133.978 29.6065 131.797 30.7837 131.797 32.9833C131.797 34.9909 133.554 36.2833 135.522 36.2833C137.026 36.2833 137.857 35.6077 138.378 34.8157H138.454V35.9737H140.617V30.2221C140.618 27.5605 138.628 26.0749 136.063 26.0749ZM135.792 34.2961C135.06 34.2961 134.036 33.9289 134.036 33.0217C134.036 31.8637 135.31 31.4197 136.411 31.4197C137.394 31.4197 137.858 31.6321 138.456 31.9213C138.282 33.3121 137.085 34.2961 135.792 34.2961ZM148.491 26.4025L145.924 32.9065H145.848L143.184 26.4025H140.772L144.766 35.4925L142.489 40.5493H144.824L150.981 26.4025H148.491ZM128.324 36.0001H130.562V20.9989H128.324V36.0001Z" fill="white"/>
<path d="M56.9003 12.2916C56.9003 13.2972 56.6027 14.0976 56.0063 14.6952C55.3295 15.4056 54.4463 15.7608 53.3615 15.7608C52.3223 15.7608 51.4379 15.4008 50.7119 14.6808C49.9847 13.9596 49.6211 13.0668 49.6211 12.0012C49.6211 10.9344 49.9847 10.0416 50.7119 9.32158C51.4379 8.60038 52.3223 8.24038 53.3615 8.24038C53.8775 8.24038 54.3707 8.34118 54.8387 8.54158C55.3079 8.74318 55.6835 9.01078 55.9643 9.34558L55.3319 9.97918C54.8555 9.40918 54.1991 9.12478 53.3603 9.12478C52.6019 9.12478 51.9467 9.39118 51.3935 9.92398C50.8403 10.4568 50.5643 11.1492 50.5643 12C50.5643 12.8508 50.8403 13.5432 51.3935 14.076C51.9467 14.6088 52.6019 14.8752 53.3603 14.8752C54.1643 14.8752 54.8351 14.6076 55.3715 14.0712C55.7195 13.722 55.9211 13.236 55.9751 12.6132H53.3603V11.748H56.8487C56.8847 11.9364 56.9003 12.1176 56.9003 12.2916Z" fill="white"/>
<path d="M62.4324 9.28445H59.154V11.5668H62.1108V12.4321H59.154V14.7144H62.4324V15.6H58.2288V8.40005H62.4324V9.28445Z" fill="white"/>
<path d="M66.3335 15.6H65.4083V9.28445H63.3971V8.40005H68.3447V9.28445H66.3335V15.6Z" fill="white"/>
<path d="M71.9242 15.6V8.40005H72.8494V15.6H71.9242Z" fill="white"/>
<path d="M76.9524 15.6H76.0272V9.28445H74.016V8.40005H78.9636V9.28445H76.9524V15.6Z" fill="white"/>
<path d="M88.3293 14.67C87.6213 15.3972 86.7417 15.7608 85.6893 15.7608C84.6369 15.7608 83.7573 15.3972 83.0505 14.67C82.3425 13.9428 81.9897 13.0524 81.9897 12C81.9897 10.9476 82.3425 10.0572 83.0505 9.33004C83.7573 8.60284 84.6369 8.23804 85.6893 8.23804C86.7357 8.23804 87.6142 8.60404 88.3246 9.33484C89.035 10.0656 89.3901 10.9536 89.3901 12C89.3901 13.0524 89.0361 13.9428 88.3293 14.67ZM83.7333 14.0664C84.2661 14.6064 84.9177 14.8752 85.6893 14.8752C86.4609 14.8752 87.1137 14.6052 87.6453 14.0664C88.1781 13.5264 88.4457 12.8376 88.4457 12C88.4457 11.1624 88.1781 10.4736 87.6453 9.93364C87.1137 9.39364 86.4609 9.12484 85.6893 9.12484C84.9177 9.12484 84.2661 9.39484 83.7333 9.93364C83.2017 10.4736 82.9341 11.1624 82.9341 12C82.9341 12.8376 83.2017 13.5264 83.7333 14.0664Z" fill="white"/>
<path d="M90.6886 15.6V8.40005H91.8142L95.3134 14.0004H95.353L95.3134 12.6132V8.40005H96.2386V15.6H95.2726L91.6114 9.72725H91.5718L91.6114 11.1144V15.6H90.6886Z" fill="white"/>
<path d="M56.9003 12.2916C56.9003 13.2972 56.6027 14.0976 56.0063 14.6952C55.3295 15.4056 54.4463 15.7608 53.3615 15.7608C52.3223 15.7608 51.4379 15.4008 50.7119 14.6808C49.9847 13.9596 49.6211 13.0668 49.6211 12.0012C49.6211 10.9344 49.9847 10.0416 50.7119 9.32158C51.4379 8.60038 52.3223 8.24038 53.3615 8.24038C53.8775 8.24038 54.3707 8.34118 54.8387 8.54158C55.3079 8.74318 55.6835 9.01078 55.9643 9.34558L55.3319 9.97918C54.8555 9.40918 54.1991 9.12478 53.3603 9.12478C52.6019 9.12478 51.9467 9.39118 51.3935 9.92398C50.8403 10.4568 50.5643 11.1492 50.5643 12C50.5643 12.8508 50.8403 13.5432 51.3935 14.076C51.9467 14.6088 52.6019 14.8752 53.3603 14.8752C54.1643 14.8752 54.8351 14.6076 55.3715 14.0712C55.7195 13.722 55.9211 13.236 55.9751 12.6132H53.3603V11.748H56.8487C56.8847 11.9364 56.9003 12.1176 56.9003 12.2916Z" stroke="white" stroke-width="0.2" stroke-miterlimit="10"/>
<path d="M62.4324 9.28445H59.154V11.5668H62.1108V12.4321H59.154V14.7144H62.4324V15.6H58.2288V8.40005H62.4324V9.28445Z" stroke="white" stroke-width="0.2" stroke-miterlimit="10"/>
<path d="M66.3335 15.6H65.4083V9.28445H63.3971V8.40005H68.3447V9.28445H66.3335V15.6Z" stroke="white" stroke-width="0.2" stroke-miterlimit="10"/>
<path d="M71.9242 15.6V8.40005H72.8494V15.6H71.9242Z" stroke="white" stroke-width="0.2" stroke-miterlimit="10"/>
<path d="M76.9524 15.6H76.0272V9.28445H74.016V8.40005H78.9636V9.28445H76.9524V15.6Z" stroke="white" stroke-width="0.2" stroke-miterlimit="10"/>
<path d="M88.3293 14.67C87.6213 15.3972 86.7417 15.7608 85.6893 15.7608C84.6369 15.7608 83.7573 15.3972 83.0505 14.67C82.3425 13.9428 81.9897 13.0524 81.9897 12C81.9897 10.9476 82.3425 10.0572 83.0505 9.33004C83.7573 8.60284 84.6369 8.23804 85.6893 8.23804C86.7357 8.23804 87.6142 8.60404 88.3246 9.33484C89.035 10.0656 89.3901 10.9536 89.3901 12C89.3901 13.0524 89.0361 13.9428 88.3293 14.67ZM83.7333 14.0664C84.2661 14.6064 84.9177 14.8752 85.6893 14.8752C86.4609 14.8752 87.1137 14.6052 87.6453 14.0664C88.1781 13.5264 88.4457 12.8376 88.4457 12C88.4457 11.1624 88.1781 10.4736 87.6453 9.93364C87.1137 9.39364 86.4609 9.12484 85.6893 9.12484C84.9177 9.12484 84.2661 9.39484 83.7333 9.93364C83.2017 10.4736 82.9341 11.1624 82.9341 12C82.9341 12.8376 83.2017 13.5264 83.7333 14.0664Z" stroke="white" stroke-width="0.2" stroke-miterlimit="10"/>
<path d="M90.6886 15.6V8.40005H91.8142L95.3134 14.0004H95.353L95.3134 12.6132V8.40005H96.2386V15.6H95.2726L91.6114 9.72725H91.5718L91.6114 11.1144V15.6H90.6886Z" stroke="white" stroke-width="0.2" stroke-miterlimit="10"/>
<g filter="url(#filter0_ii_2450_14325)">
<path d="M12.5244 9.04561C12.1752 9.41521 11.9687 9.98881 11.9687 10.7316V37.2708C11.9687 38.0148 12.1752 38.5872 12.5244 38.9568L12.6132 39.0432L27.48 24.1764V24.0012V23.826L12.6132 8.95801L12.5244 9.04561Z" fill="url(#paint0_linear_2450_14325)"/>
<path d="M32.4353 29.1335L27.4805 24.1763V24.0011V23.8259L32.4365 18.8699L32.5481 18.9335L38.4197 22.2695C40.0961 23.2223 40.0961 24.7811 38.4197 25.7351L32.5481 29.0711L32.4353 29.1335Z" fill="url(#paint1_linear_2450_14325)"/>
<g filter="url(#filter1_i_2450_14325)">
<path d="M32.5466 29.07L27.4778 24.0012L12.5234 38.9568C13.0754 39.5424 13.9886 39.6144 15.017 39.0312L32.5466 29.07Z" fill="url(#paint2_linear_2450_14325)"/>
</g>
<path d="M32.5466 18.9324L15.017 8.97238C13.9886 8.38798 13.0754 8.46118 12.5234 9.04678L27.479 24.0024L32.5466 18.9324Z" fill="url(#paint3_linear_2450_14325)"/>
</g>
<defs>
<filter id="filter0_ii_2450_14325" x="11.9688" y="8.56909" width="27.707" height="30.865" filterUnits="userSpaceOnUse" color-interpolation-filters="sRGB">
<feFlood flood-opacity="0" result="BackgroundImageFix"/>
<feBlend mode="normal" in="SourceGraphic" in2="BackgroundImageFix" result="shape"/>
<feColorMatrix in="SourceAlpha" type="matrix" values="0 0 0 0 0 0 0 0 0 0 0 0 0 0 0 0 0 0 127 0" result="hardAlpha"/>
<feOffset dy="-0.15"/>
<feComposite in2="hardAlpha" operator="arithmetic" k2="-1" k3="1"/>
<feColorMatrix type="matrix" values="0 0 0 0 0 0 0 0 0 0 0 0 0 0 0 0 0 0 0.12 0"/>
<feBlend mode="normal" in2="shape" result="effect1_innerShadow_2450_14325"/>
<feColorMatrix in="SourceAlpha" type="matrix" values="0 0 0 0 0 0 0 0 0 0 0 0 0 0 0 0 0 0 127 0" result="hardAlpha"/>
<feOffset dy="0.15"/>
<feComposite in2="hardAlpha" operator="arithmetic" k2="-1" k3="1"/>
<feColorMatrix type="matrix" values="0 0 0 0 1 0 0 0 0 1 0 0 0 0 1 0 0 0 0.25 0"/>
<feBlend mode="normal" in2="effect1_innerShadow_2450_14325" result="effect2_innerShadow_2450_14325"/>
</filter>
<filter id="filter1_i_2450_14325" x="12.5234" y="24.0012" width="20.0234" height="15.4329" filterUnits="userSpaceOnUse" color-interpolation-filters="sRGB">
<feFlood flood-opacity="0" result="BackgroundImageFix"/>
<feBlend mode="normal" in="SourceGraphic" in2="BackgroundImageFix" result="shape"/>
<feColorMatrix in="SourceAlpha" type="matrix" values="0 0 0 0 0 0 0 0 0 0 0 0 0 0 0 0 0 0 127 0" result="hardAlpha"/>
<feOffset dy="-0.15"/>
<feComposite in2="hardAlpha" operator="arithmetic" k2="-1" k3="1"/>
<feColorMatrix type="matrix" values="0 0 0 0 0 0 0 0 0 0 0 0 0 0 0 0 0 0 0.08 0"/>
<feBlend mode="normal" in2="shape" result="effect1_innerShadow_2450_14325"/>
</filter>
<linearGradient id="paint0_linear_2450_14325" x1="26.1621" y1="10.4508" x2="6.02371" y2="30.5892" gradientUnits="userSpaceOnUse">
<stop stop-color="#00A0FF"/>
<stop offset="0.0066" stop-color="#00A1FF"/>
<stop offset="0.2601" stop-color="#00BEFF"/>
<stop offset="0.5122" stop-color="#00D2FF"/>
<stop offset="0.7604" stop-color="#00DFFF"/>
<stop offset="1" stop-color="#00E3FF"/>
</linearGradient>
<linearGradient id="paint1_linear_2450_14325" x1="40.6019" y1="24.0011" x2="11.5668" y2="24.0011" gradientUnits="userSpaceOnUse">
<stop stop-color="#FFE000"/>
<stop offset="0.4087" stop-color="#FFBD00"/>
<stop offset="0.7754" stop-color="#FFA500"/>
<stop offset="1" stop-color="#FF9C00"/>
</linearGradient>
<linearGradient id="paint2_linear_2450_14325" x1="29.794" y1="26.7539" x2="2.48377" y2="54.0641" gradientUnits="userSpaceOnUse">
<stop stop-color="#FF3A44"/>
<stop offset="1" stop-color="#C31162"/>
</linearGradient>
<linearGradient id="paint3_linear_2450_14325" x1="8.75712" y1="0.212142" x2="20.9519" y2="12.4069" gradientUnits="userSpaceOnUse">
<stop stop-color="#32A071"/>
<stop offset="0.0685" stop-color="#2DA771"/>
<stop offset="0.4762" stop-color="#15CF74"/>
<stop offset="0.8009" stop-color="#06E775"/>
<stop offset="1" stop-color="#00F076"/>
</linearGradient>
</defs>
</svg>
