<svg width="100" height="100" viewBox="0 0 100 100" fill="none" xmlns="http://www.w3.org/2000/svg">
<rect width="100" height="100" rx="50" fill="#AD6B00" fill-opacity="0.1"/>
<path d="M60.5 42.7944V41.75C60.5 37.0475 53.4069 33.5 44 33.5C34.5931 33.5 27.5 37.0475 27.5 41.75V49.25C27.5 53.1669 32.4219 56.2794 39.5 57.2113V58.25C39.5 62.9525 46.5931 66.5 56 66.5C65.4069 66.5 72.5 62.9525 72.5 58.25V50.75C72.5 46.8687 67.7337 43.7525 60.5 42.7944ZM36.5 53.5381C32.8269 52.5125 30.5 50.8231 30.5 49.25V46.6119C32.03 47.6956 34.0794 48.5694 36.5 49.1562V53.5381ZM51.5 49.1562C53.9206 48.5694 55.97 47.6956 57.5 46.6119V49.25C57.5 50.8231 55.1731 52.5125 51.5 53.5381V49.1562ZM48.5 62.5381C44.8269 61.5125 42.5 59.8231 42.5 58.25V57.4681C42.9931 57.4869 43.4919 57.5 44 57.5C44.7275 57.5 45.4381 57.4756 46.1356 57.4344C46.9105 57.7118 47.6998 57.9471 48.5 58.1394V62.5381ZM48.5 54.1719C47.0101 54.392 45.506 54.5016 44 54.5C42.494 54.5016 40.9899 54.392 39.5 54.1719V49.7113C40.9921 49.9057 42.4953 50.0021 44 50C45.5047 50.0021 47.0079 49.9057 48.5 49.7113V54.1719ZM60.5 63.1719C57.5159 63.6094 54.4841 63.6094 51.5 63.1719V58.7C52.9916 58.9005 54.495 59.0007 56 59C57.5047 59.0021 59.0079 58.9057 60.5 58.7113V63.1719ZM69.5 58.25C69.5 59.8231 67.1731 61.5125 63.5 62.5381V58.1562C65.9206 57.5694 67.97 56.6956 69.5 55.6119V58.25Z" fill="#AD6B00"/>
</svg>
