<svg width="141" height="236" viewBox="0 0 141 236" fill="none" xmlns="http://www.w3.org/2000/svg">
<mask id="path-1-outside-1_1749_9949" maskUnits="userSpaceOnUse" x="-0.792969" y="205.321" width="14" height="14" fill="black">
<rect fill="white" x="-0.792969" y="205.321" width="14" height="14"/>
<path d="M11.7656 210.931V212.8H1.04492V210.931H11.7656ZM7.4043 206.365V217.752H5.41699V206.365H7.4043Z"/>
</mask>
<path d="M11.7656 210.931V212.8H1.04492V210.931H11.7656ZM7.4043 206.365V217.752H5.41699V206.365H7.4043Z" fill="#E5E5E5"/>
<path d="M11.7656 210.931H12.7656V209.931H11.7656V210.931ZM11.7656 212.8V213.8H12.7656V212.8H11.7656ZM1.04492 212.8H0.0449219V213.8H1.04492V212.8ZM1.04492 210.931V209.931H0.0449219V210.931H1.04492ZM7.4043 206.365H8.4043V205.365H7.4043V206.365ZM7.4043 217.752V218.752H8.4043V217.752H7.4043ZM5.41699 217.752H4.41699V218.752H5.41699V217.752ZM5.41699 206.365V205.365H4.41699V206.365H5.41699ZM10.7656 210.931V212.8H12.7656V210.931H10.7656ZM11.7656 211.8H1.04492V213.8H11.7656V211.8ZM2.04492 212.8V210.931H0.0449219V212.8H2.04492ZM1.04492 211.931H11.7656V209.931H1.04492V211.931ZM6.4043 206.365V217.752H8.4043V206.365H6.4043ZM7.4043 216.752H5.41699V218.752H7.4043V216.752ZM6.41699 217.752V206.365H4.41699V217.752H6.41699ZM5.41699 207.365H7.4043V205.365H5.41699V207.365Z" fill="#49A52C" mask="url(#path-1-outside-1_1749_9949)"/>
<mask id="path-3-outside-2_1749_9949" maskUnits="userSpaceOnUse" x="31.25" y="155.826" width="14" height="14" fill="black">
<rect fill="white" x="31.25" y="155.826" width="14" height="14"/>
<path d="M43.8086 161.436V163.305H33.0879V161.436H43.8086ZM39.4473 156.871V168.257H37.46V156.871H39.4473Z"/>
</mask>
<path d="M43.8086 161.436V163.305H33.0879V161.436H43.8086ZM39.4473 156.871V168.257H37.46V156.871H39.4473Z" fill="#E5E5E5"/>
<path d="M43.8086 161.436H44.8086V160.436H43.8086V161.436ZM43.8086 163.305V164.305H44.8086V163.305H43.8086ZM33.0879 163.305H32.0879V164.305H33.0879V163.305ZM33.0879 161.436V160.436H32.0879V161.436H33.0879ZM39.4473 156.871H40.4473V155.871H39.4473V156.871ZM39.4473 168.257V169.257H40.4473V168.257H39.4473ZM37.46 168.257H36.46V169.257H37.46V168.257ZM37.46 156.871V155.871H36.46V156.871H37.46ZM42.8086 161.436V163.305H44.8086V161.436H42.8086ZM43.8086 162.305H33.0879V164.305H43.8086V162.305ZM34.0879 163.305V161.436H32.0879V163.305H34.0879ZM33.0879 162.436H43.8086V160.436H33.0879V162.436ZM38.4473 156.871V168.257H40.4473V156.871H38.4473ZM39.4473 167.257H37.46V169.257H39.4473V167.257ZM38.46 168.257V156.871H36.46V168.257H38.46ZM37.46 157.871H39.4473V155.871H37.46V157.871Z" fill="#49A52C" mask="url(#path-3-outside-2_1749_9949)"/>
<mask id="path-5-outside-3_1749_9949" maskUnits="userSpaceOnUse" x="63.2969" y="7.34033" width="14" height="14" fill="black">
<rect fill="white" x="63.2969" y="7.34033" width="14" height="14"/>
<path d="M75.8555 12.9507V14.8198H65.1348V12.9507H75.8555ZM71.4941 8.38525V19.772H69.5068V8.38525H71.4941Z"/>
</mask>
<path d="M75.8555 12.9507V14.8198H65.1348V12.9507H75.8555ZM71.4941 8.38525V19.772H69.5068V8.38525H71.4941Z" fill="#E5E5E5"/>
<path d="M75.8555 12.9507H76.8555V11.9507H75.8555V12.9507ZM75.8555 14.8198V15.8198H76.8555V14.8198H75.8555ZM65.1348 14.8198H64.1348V15.8198H65.1348V14.8198ZM65.1348 12.9507V11.9507H64.1348V12.9507H65.1348ZM71.4941 8.38525H72.4941V7.38525H71.4941V8.38525ZM71.4941 19.772V20.772H72.4941V19.772H71.4941ZM69.5068 19.772H68.5068V20.772H69.5068V19.772ZM69.5068 8.38525V7.38525H68.5068V8.38525H69.5068ZM74.8555 12.9507V14.8198H76.8555V12.9507H74.8555ZM75.8555 13.8198H65.1348V15.8198H75.8555V13.8198ZM66.1348 14.8198V12.9507H64.1348V14.8198H66.1348ZM65.1348 13.9507H75.8555V11.9507H65.1348V13.9507ZM70.4941 8.38525V19.772H72.4941V8.38525H70.4941ZM71.4941 18.772H69.5068V20.772H71.4941V18.772ZM70.5068 19.772V8.38525H68.5068V19.772H70.5068ZM69.5068 9.38525H71.4941V7.38525H69.5068V9.38525Z" fill="#49A52C" mask="url(#path-5-outside-3_1749_9949)"/>
<mask id="path-7-outside-4_1749_9949" maskUnits="userSpaceOnUse" x="63.2969" y="56.8352" width="14" height="14" fill="black">
<rect fill="white" x="63.2969" y="56.8352" width="14" height="14"/>
<path d="M75.8555 62.4456V64.3147H65.1348V62.4456H75.8555ZM71.4941 57.8801V69.2668H69.5068V57.8801H71.4941Z"/>
</mask>
<path d="M75.8555 62.4456V64.3147H65.1348V62.4456H75.8555ZM71.4941 57.8801V69.2668H69.5068V57.8801H71.4941Z" fill="#E5E5E5"/>
<path d="M75.8555 62.4456H76.8555V61.4456H75.8555V62.4456ZM75.8555 64.3147V65.3147H76.8555V64.3147H75.8555ZM65.1348 64.3147H64.1348V65.3147H65.1348V64.3147ZM65.1348 62.4456V61.4456H64.1348V62.4456H65.1348ZM71.4941 57.8801H72.4941V56.8801H71.4941V57.8801ZM71.4941 69.2668V70.2668H72.4941V69.2668H71.4941ZM69.5068 69.2668H68.5068V70.2668H69.5068V69.2668ZM69.5068 57.8801V56.8801H68.5068V57.8801H69.5068ZM74.8555 62.4456V64.3147H76.8555V62.4456H74.8555ZM75.8555 63.3147H65.1348V65.3147H75.8555V63.3147ZM66.1348 64.3147V62.4456H64.1348V64.3147H66.1348ZM65.1348 63.4456H75.8555V61.4456H65.1348V63.4456ZM70.4941 57.8801V69.2668H72.4941V57.8801H70.4941ZM71.4941 68.2668H69.5068V70.2668H71.4941V68.2668ZM70.5068 69.2668V57.8801H68.5068V69.2668H70.5068ZM69.5068 58.8801H71.4941V56.8801H69.5068V58.8801Z" fill="#49A52C" mask="url(#path-7-outside-4_1749_9949)"/>
<mask id="path-9-outside-5_1749_9949" maskUnits="userSpaceOnUse" x="63.2969" y="106.33" width="14" height="14" fill="black">
<rect fill="white" x="63.2969" y="106.33" width="14" height="14"/>
<path d="M75.8555 111.941V113.81H65.1348V111.941H75.8555ZM71.4941 107.375V118.762H69.5068V107.375H71.4941Z"/>
</mask>
<path d="M75.8555 111.941V113.81H65.1348V111.941H75.8555ZM71.4941 107.375V118.762H69.5068V107.375H71.4941Z" fill="#6246E5"/>
<path d="M75.8555 111.941H76.8555V110.941H75.8555V111.941ZM75.8555 113.81V114.81H76.8555V113.81H75.8555ZM65.1348 113.81H64.1348V114.81H65.1348V113.81ZM65.1348 111.941V110.941H64.1348V111.941H65.1348ZM71.4941 107.375H72.4941V106.375H71.4941V107.375ZM71.4941 118.762V119.762H72.4941V118.762H71.4941ZM69.5068 118.762H68.5068V119.762H69.5068V118.762ZM69.5068 107.375V106.375H68.5068V107.375H69.5068ZM74.8555 111.941V113.81H76.8555V111.941H74.8555ZM75.8555 112.81H65.1348V114.81H75.8555V112.81ZM66.1348 113.81V111.941H64.1348V113.81H66.1348ZM65.1348 112.941H75.8555V110.941H65.1348V112.941ZM70.4941 107.375V118.762H72.4941V107.375H70.4941ZM71.4941 117.762H69.5068V119.762H71.4941V117.762ZM70.5068 118.762V107.375H68.5068V118.762H70.5068ZM69.5068 108.375H71.4941V106.375H69.5068V108.375Z" fill="#49A52C" mask="url(#path-9-outside-5_1749_9949)"/>
<mask id="path-11-outside-6_1749_9949" maskUnits="userSpaceOnUse" x="63.2969" y="155.826" width="14" height="14" fill="black">
<rect fill="white" x="63.2969" y="155.826" width="14" height="14"/>
<path d="M75.8555 161.436V163.305H65.1348V161.436H75.8555ZM71.4941 156.871V168.257H69.5068V156.871H71.4941Z"/>
</mask>
<path d="M75.8555 161.436V163.305H65.1348V161.436H75.8555ZM71.4941 156.871V168.257H69.5068V156.871H71.4941Z" fill="#E5E5E5"/>
<path d="M75.8555 161.436H76.8555V160.436H75.8555V161.436ZM75.8555 163.305V164.305H76.8555V163.305H75.8555ZM65.1348 163.305H64.1348V164.305H65.1348V163.305ZM65.1348 161.436V160.436H64.1348V161.436H65.1348ZM71.4941 156.871H72.4941V155.871H71.4941V156.871ZM71.4941 168.257V169.257H72.4941V168.257H71.4941ZM69.5068 168.257H68.5068V169.257H69.5068V168.257ZM69.5068 156.871V155.871H68.5068V156.871H69.5068ZM74.8555 161.436V163.305H76.8555V161.436H74.8555ZM75.8555 162.305H65.1348V164.305H75.8555V162.305ZM66.1348 163.305V161.436H64.1348V163.305H66.1348ZM65.1348 162.436H75.8555V160.436H65.1348V162.436ZM70.4941 156.871V168.257H72.4941V156.871H70.4941ZM71.4941 167.257H69.5068V169.257H71.4941V167.257ZM70.5068 168.257V156.871H68.5068V168.257H70.5068ZM69.5068 157.871H71.4941V155.871H69.5068V157.871Z" fill="#49A52C" mask="url(#path-11-outside-6_1749_9949)"/>
<mask id="path-13-outside-7_1749_9949" maskUnits="userSpaceOnUse" x="63.2969" y="205.321" width="14" height="14" fill="black">
<rect fill="white" x="63.2969" y="205.321" width="14" height="14"/>
<path d="M75.8555 210.931V212.8H65.1348V210.931H75.8555ZM71.4941 206.365V217.752H69.5068V206.365H71.4941Z"/>
</mask>
<path d="M75.8555 210.931V212.8H65.1348V210.931H75.8555ZM71.4941 206.365V217.752H69.5068V206.365H71.4941Z" fill="#E5E5E5"/>
<path d="M75.8555 210.931H76.8555V209.931H75.8555V210.931ZM75.8555 212.8V213.8H76.8555V212.8H75.8555ZM65.1348 212.8H64.1348V213.8H65.1348V212.8ZM65.1348 210.931V209.931H64.1348V210.931H65.1348ZM71.4941 206.365H72.4941V205.365H71.4941V206.365ZM71.4941 217.752V218.752H72.4941V217.752H71.4941ZM69.5068 217.752H68.5068V218.752H69.5068V217.752ZM69.5068 206.365V205.365H68.5068V206.365H69.5068ZM74.8555 210.931V212.8H76.8555V210.931H74.8555ZM75.8555 211.8H65.1348V213.8H75.8555V211.8ZM66.1348 212.8V210.931H64.1348V212.8H66.1348ZM65.1348 211.931H75.8555V209.931H65.1348V211.931ZM70.4941 206.365V217.752H72.4941V206.365H70.4941ZM71.4941 216.752H69.5068V218.752H71.4941V216.752ZM70.5068 217.752V206.365H68.5068V217.752H70.5068ZM69.5068 207.365H71.4941V205.365H69.5068V207.365Z" fill="#49A52C" mask="url(#path-13-outside-7_1749_9949)"/>
<mask id="path-15-outside-8_1749_9949" maskUnits="userSpaceOnUse" x="95.3359" y="7.34033" width="14" height="14" fill="black">
<rect fill="white" x="95.3359" y="7.34033" width="14" height="14"/>
<path d="M107.895 12.9507V14.8198H97.1738V12.9507H107.895ZM103.533 8.38525V19.772H101.546V8.38525H103.533Z"/>
</mask>
<path d="M107.895 12.9507V14.8198H97.1738V12.9507H107.895ZM103.533 8.38525V19.772H101.546V8.38525H103.533Z" fill="#E5E5E5"/>
<path d="M107.895 12.9507H108.895V11.9507H107.895V12.9507ZM107.895 14.8198V15.8198H108.895V14.8198H107.895ZM97.1738 14.8198H96.1738V15.8198H97.1738V14.8198ZM97.1738 12.9507V11.9507H96.1738V12.9507H97.1738ZM103.533 8.38525H104.533V7.38525H103.533V8.38525ZM103.533 19.772V20.772H104.533V19.772H103.533ZM101.546 19.772H100.546V20.772H101.546V19.772ZM101.546 8.38525V7.38525H100.546V8.38525H101.546ZM106.895 12.9507V14.8198H108.895V12.9507H106.895ZM107.895 13.8198H97.1738V15.8198H107.895V13.8198ZM98.1738 14.8198V12.9507H96.1738V14.8198H98.1738ZM97.1738 13.9507H107.895V11.9507H97.1738V13.9507ZM102.533 8.38525V19.772H104.533V8.38525H102.533ZM103.533 18.772H101.546V20.772H103.533V18.772ZM102.546 19.772V8.38525H100.546V19.772H102.546ZM101.546 9.38525H103.533V7.38525H101.546V9.38525Z" fill="#49A52C" mask="url(#path-15-outside-8_1749_9949)"/>
<mask id="path-17-outside-9_1749_9949" maskUnits="userSpaceOnUse" x="95.3359" y="56.8352" width="14" height="14" fill="black">
<rect fill="white" x="95.3359" y="56.8352" width="14" height="14"/>
<path d="M107.895 62.4456V64.3147H97.1738V62.4456H107.895ZM103.533 57.8801V69.2668H101.546V57.8801H103.533Z"/>
</mask>
<path d="M107.895 62.4456V64.3147H97.1738V62.4456H107.895ZM103.533 57.8801V69.2668H101.546V57.8801H103.533Z" fill="#E5E5E5"/>
<path d="M107.895 62.4456H108.895V61.4456H107.895V62.4456ZM107.895 64.3147V65.3147H108.895V64.3147H107.895ZM97.1738 64.3147H96.1738V65.3147H97.1738V64.3147ZM97.1738 62.4456V61.4456H96.1738V62.4456H97.1738ZM103.533 57.8801H104.533V56.8801H103.533V57.8801ZM103.533 69.2668V70.2668H104.533V69.2668H103.533ZM101.546 69.2668H100.546V70.2668H101.546V69.2668ZM101.546 57.8801V56.8801H100.546V57.8801H101.546ZM106.895 62.4456V64.3147H108.895V62.4456H106.895ZM107.895 63.3147H97.1738V65.3147H107.895V63.3147ZM98.1738 64.3147V62.4456H96.1738V64.3147H98.1738ZM97.1738 63.4456H107.895V61.4456H97.1738V63.4456ZM102.533 57.8801V69.2668H104.533V57.8801H102.533ZM103.533 68.2668H101.546V70.2668H103.533V68.2668ZM102.546 69.2668V57.8801H100.546V69.2668H102.546ZM101.546 58.8801H103.533V56.8801H101.546V58.8801Z" fill="#49A52C" mask="url(#path-17-outside-9_1749_9949)"/>
<mask id="path-19-outside-10_1749_9949" maskUnits="userSpaceOnUse" x="95.3359" y="106.33" width="14" height="14" fill="black">
<rect fill="white" x="95.3359" y="106.33" width="14" height="14"/>
<path d="M107.895 111.941V113.81H97.1738V111.941H107.895ZM103.533 107.375V118.762H101.546V107.375H103.533Z"/>
</mask>
<path d="M107.895 111.941V113.81H97.1738V111.941H107.895ZM103.533 107.375V118.762H101.546V107.375H103.533Z" fill="#E5E5E5"/>
<path d="M107.895 111.941H108.895V110.941H107.895V111.941ZM107.895 113.81V114.81H108.895V113.81H107.895ZM97.1738 113.81H96.1738V114.81H97.1738V113.81ZM97.1738 111.941V110.941H96.1738V111.941H97.1738ZM103.533 107.375H104.533V106.375H103.533V107.375ZM103.533 118.762V119.762H104.533V118.762H103.533ZM101.546 118.762H100.546V119.762H101.546V118.762ZM101.546 107.375V106.375H100.546V107.375H101.546ZM106.895 111.941V113.81H108.895V111.941H106.895ZM107.895 112.81H97.1738V114.81H107.895V112.81ZM98.1738 113.81V111.941H96.1738V113.81H98.1738ZM97.1738 112.941H107.895V110.941H97.1738V112.941ZM102.533 107.375V118.762H104.533V107.375H102.533ZM103.533 117.762H101.546V119.762H103.533V117.762ZM102.546 118.762V107.375H100.546V118.762H102.546ZM101.546 108.375H103.533V106.375H101.546V108.375Z" fill="#49A52C" mask="url(#path-19-outside-10_1749_9949)"/>
<mask id="path-21-outside-11_1749_9949" maskUnits="userSpaceOnUse" x="95.3359" y="155.826" width="14" height="14" fill="black">
<rect fill="white" x="95.3359" y="155.826" width="14" height="14"/>
<path d="M107.895 161.436V163.305H97.1738V161.436H107.895ZM103.533 156.871V168.257H101.546V156.871H103.533Z"/>
</mask>
<path d="M107.895 161.436V163.305H97.1738V161.436H107.895ZM103.533 156.871V168.257H101.546V156.871H103.533Z" fill="#E5E5E5"/>
<path d="M107.895 161.436H108.895V160.436H107.895V161.436ZM107.895 163.305V164.305H108.895V163.305H107.895ZM97.1738 163.305H96.1738V164.305H97.1738V163.305ZM97.1738 161.436V160.436H96.1738V161.436H97.1738ZM103.533 156.871H104.533V155.871H103.533V156.871ZM103.533 168.257V169.257H104.533V168.257H103.533ZM101.546 168.257H100.546V169.257H101.546V168.257ZM101.546 156.871V155.871H100.546V156.871H101.546ZM106.895 161.436V163.305H108.895V161.436H106.895ZM107.895 162.305H97.1738V164.305H107.895V162.305ZM98.1738 163.305V161.436H96.1738V163.305H98.1738ZM97.1738 162.436H107.895V160.436H97.1738V162.436ZM102.533 156.871V168.257H104.533V156.871H102.533ZM103.533 167.257H101.546V169.257H103.533V167.257ZM102.546 168.257V156.871H100.546V168.257H102.546ZM101.546 157.871H103.533V155.871H101.546V157.871Z" fill="#49A52C" mask="url(#path-21-outside-11_1749_9949)"/>
<mask id="path-23-outside-12_1749_9949" maskUnits="userSpaceOnUse" x="95.3359" y="205.321" width="14" height="14" fill="black">
<rect fill="white" x="95.3359" y="205.321" width="14" height="14"/>
<path d="M107.895 210.931V212.8H97.1738V210.931H107.895ZM103.533 206.365V217.752H101.546V206.365H103.533Z"/>
</mask>
<path d="M107.895 210.931V212.8H97.1738V210.931H107.895ZM103.533 206.365V217.752H101.546V206.365H103.533Z" fill="#E5E5E5"/>
<path d="M107.895 210.931H108.895V209.931H107.895V210.931ZM107.895 212.8V213.8H108.895V212.8H107.895ZM97.1738 212.8H96.1738V213.8H97.1738V212.8ZM97.1738 210.931V209.931H96.1738V210.931H97.1738ZM103.533 206.365H104.533V205.365H103.533V206.365ZM103.533 217.752V218.752H104.533V217.752H103.533ZM101.546 217.752H100.546V218.752H101.546V217.752ZM101.546 206.365V205.365H100.546V206.365H101.546ZM106.895 210.931V212.8H108.895V210.931H106.895ZM107.895 211.8H97.1738V213.8H107.895V211.8ZM98.1738 212.8V210.931H96.1738V212.8H98.1738ZM97.1738 211.931H107.895V209.931H97.1738V211.931ZM102.533 206.365V217.752H104.533V206.365H102.533ZM103.533 216.752H101.546V218.752H103.533V216.752ZM102.546 217.752V206.365H100.546V217.752H102.546ZM101.546 207.365H103.533V205.365H101.546V207.365Z" fill="#49A52C" mask="url(#path-23-outside-12_1749_9949)"/>
<mask id="path-25-outside-13_1749_9949" maskUnits="userSpaceOnUse" x="127.379" y="7.34033" width="14" height="14" fill="black">
<rect fill="white" x="127.379" y="7.34033" width="14" height="14"/>
<path d="M139.938 12.9507V14.8198H129.217V12.9507H139.938ZM135.576 8.38525V19.772H133.589V8.38525H135.576Z"/>
</mask>
<path d="M139.938 12.9507V14.8198H129.217V12.9507H139.938ZM135.576 8.38525V19.772H133.589V8.38525H135.576Z" fill="#FF7152"/>
<path d="M139.938 12.9507H140.938V11.9507H139.938V12.9507ZM139.938 14.8198V15.8198H140.938V14.8198H139.938ZM129.217 14.8198H128.217V15.8198H129.217V14.8198ZM129.217 12.9507V11.9507H128.217V12.9507H129.217ZM135.576 8.38525H136.576V7.38525H135.576V8.38525ZM135.576 19.772V20.772H136.576V19.772H135.576ZM133.589 19.772H132.589V20.772H133.589V19.772ZM133.589 8.38525V7.38525H132.589V8.38525H133.589ZM138.938 12.9507V14.8198H140.938V12.9507H138.938ZM139.938 13.8198H129.217V15.8198H139.938V13.8198ZM130.217 14.8198V12.9507H128.217V14.8198H130.217ZM129.217 13.9507H139.938V11.9507H129.217V13.9507ZM134.576 8.38525V19.772H136.576V8.38525H134.576ZM135.576 18.772H133.589V20.772H135.576V18.772ZM134.589 19.772V8.38525H132.589V19.772H134.589ZM133.589 9.38525H135.576V7.38525H133.589V9.38525Z" fill="#49A52C" mask="url(#path-25-outside-13_1749_9949)"/>
<mask id="path-27-outside-14_1749_9949" maskUnits="userSpaceOnUse" x="127.379" y="56.8352" width="14" height="14" fill="black">
<rect fill="white" x="127.379" y="56.8352" width="14" height="14"/>
<path d="M139.938 62.4456V64.3147H129.217V62.4456H139.938ZM135.576 57.8801V69.2668H133.589V57.8801H135.576Z"/>
</mask>
<path d="M139.938 62.4456V64.3147H129.217V62.4456H139.938ZM135.576 57.8801V69.2668H133.589V57.8801H135.576Z" fill="#E5E5E5"/>
<path d="M139.938 62.4456H140.938V61.4456H139.938V62.4456ZM139.938 64.3147V65.3147H140.938V64.3147H139.938ZM129.217 64.3147H128.217V65.3147H129.217V64.3147ZM129.217 62.4456V61.4456H128.217V62.4456H129.217ZM135.576 57.8801H136.576V56.8801H135.576V57.8801ZM135.576 69.2668V70.2668H136.576V69.2668H135.576ZM133.589 69.2668H132.589V70.2668H133.589V69.2668ZM133.589 57.8801V56.8801H132.589V57.8801H133.589ZM138.938 62.4456V64.3147H140.938V62.4456H138.938ZM139.938 63.3147H129.217V65.3147H139.938V63.3147ZM130.217 64.3147V62.4456H128.217V64.3147H130.217ZM129.217 63.4456H139.938V61.4456H129.217V63.4456ZM134.576 57.8801V69.2668H136.576V57.8801H134.576ZM135.576 68.2668H133.589V70.2668H135.576V68.2668ZM134.589 69.2668V57.8801H132.589V69.2668H134.589ZM133.589 58.8801H135.576V56.8801H133.589V58.8801Z" fill="#49A52C" mask="url(#path-27-outside-14_1749_9949)"/>
<mask id="path-29-outside-15_1749_9949" maskUnits="userSpaceOnUse" x="127.379" y="106.33" width="14" height="14" fill="black">
<rect fill="white" x="127.379" y="106.33" width="14" height="14"/>
<path d="M139.938 111.941V113.81H129.217V111.941H139.938ZM135.576 107.375V118.762H133.589V107.375H135.576Z"/>
</mask>
<path d="M139.938 111.941V113.81H129.217V111.941H139.938ZM135.576 107.375V118.762H133.589V107.375H135.576Z" fill="#E5E5E5"/>
<path d="M139.938 111.941H140.938V110.941H139.938V111.941ZM139.938 113.81V114.81H140.938V113.81H139.938ZM129.217 113.81H128.217V114.81H129.217V113.81ZM129.217 111.941V110.941H128.217V111.941H129.217ZM135.576 107.375H136.576V106.375H135.576V107.375ZM135.576 118.762V119.762H136.576V118.762H135.576ZM133.589 118.762H132.589V119.762H133.589V118.762ZM133.589 107.375V106.375H132.589V107.375H133.589ZM138.938 111.941V113.81H140.938V111.941H138.938ZM139.938 112.81H129.217V114.81H139.938V112.81ZM130.217 113.81V111.941H128.217V113.81H130.217ZM129.217 112.941H139.938V110.941H129.217V112.941ZM134.576 107.375V118.762H136.576V107.375H134.576ZM135.576 117.762H133.589V119.762H135.576V117.762ZM134.589 118.762V107.375H132.589V118.762H134.589ZM133.589 108.375H135.576V106.375H133.589V108.375Z" fill="#49A52C" mask="url(#path-29-outside-15_1749_9949)"/>
<mask id="path-31-outside-16_1749_9949" maskUnits="userSpaceOnUse" x="127.379" y="155.826" width="14" height="14" fill="black">
<rect fill="white" x="127.379" y="155.826" width="14" height="14"/>
<path d="M139.938 161.436V163.305H129.217V161.436H139.938ZM135.576 156.871V168.257H133.589V156.871H135.576Z"/>
</mask>
<path d="M139.938 161.436V163.305H129.217V161.436H139.938ZM135.576 156.871V168.257H133.589V156.871H135.576Z" fill="#E5E5E5"/>
<path d="M139.938 161.436H140.938V160.436H139.938V161.436ZM139.938 163.305V164.305H140.938V163.305H139.938ZM129.217 163.305H128.217V164.305H129.217V163.305ZM129.217 161.436V160.436H128.217V161.436H129.217ZM135.576 156.871H136.576V155.871H135.576V156.871ZM135.576 168.257V169.257H136.576V168.257H135.576ZM133.589 168.257H132.589V169.257H133.589V168.257ZM133.589 156.871V155.871H132.589V156.871H133.589ZM138.938 161.436V163.305H140.938V161.436H138.938ZM139.938 162.305H129.217V164.305H139.938V162.305ZM130.217 163.305V161.436H128.217V163.305H130.217ZM129.217 162.436H139.938V160.436H129.217V162.436ZM134.576 156.871V168.257H136.576V156.871H134.576ZM135.576 167.257H133.589V169.257H135.576V167.257ZM134.589 168.257V156.871H132.589V168.257H134.589ZM133.589 157.871H135.576V155.871H133.589V157.871Z" fill="#49A52C" mask="url(#path-31-outside-16_1749_9949)"/>
<mask id="path-33-outside-17_1749_9949" maskUnits="userSpaceOnUse" x="127.379" y="205.321" width="14" height="14" fill="black">
<rect fill="white" x="127.379" y="205.321" width="14" height="14"/>
<path d="M139.938 210.931V212.8H129.217V210.931H139.938ZM135.576 206.365V217.752H133.589V206.365H135.576Z"/>
</mask>
<path d="M139.938 210.931V212.8H129.217V210.931H139.938ZM135.576 206.365V217.752H133.589V206.365H135.576Z" fill="#E5E5E5"/>
<path d="M139.938 210.931H140.938V209.931H139.938V210.931ZM139.938 212.8V213.8H140.938V212.8H139.938ZM129.217 212.8H128.217V213.8H129.217V212.8ZM129.217 210.931V209.931H128.217V210.931H129.217ZM135.576 206.365H136.576V205.365H135.576V206.365ZM135.576 217.752V218.752H136.576V217.752H135.576ZM133.589 217.752H132.589V218.752H133.589V217.752ZM133.589 206.365V205.365H132.589V206.365H133.589ZM138.938 210.931V212.8H140.938V210.931H138.938ZM139.938 211.8H129.217V213.8H139.938V211.8ZM130.217 212.8V210.931H128.217V212.8H130.217ZM129.217 211.931H139.938V209.931H129.217V211.931ZM134.576 206.365V217.752H136.576V206.365H134.576ZM135.576 216.752H133.589V218.752H135.576V216.752ZM134.589 217.752V206.365H132.589V217.752H134.589ZM133.589 207.365H135.576V205.365H133.589V207.365Z" fill="#49A52C" mask="url(#path-33-outside-17_1749_9949)"/>
</svg>
