<svg width="142" height="166" viewBox="0 0 142 166" fill="none" xmlns="http://www.w3.org/2000/svg">
<path d="M11.5586 12.6104V14.4795H0.837891V12.6104H11.5586ZM7.19727 8.04492V19.4316H5.20996V8.04492H7.19727Z" fill="#FF7152"/>
<path d="M11.5586 47.6104V49.4795H0.837891V47.6104H11.5586ZM7.19727 43.0449V54.4316H5.20996V43.0449H7.19727Z" fill="#E5E5E5"/>
<path d="M11.5586 82.6104V84.4795H0.837891V82.6104H11.5586ZM7.19727 78.0449V89.4316H5.20996V78.0449H7.19727Z" fill="#E5E5E5"/>
<path d="M35.5586 12.6104V14.4795H24.8379V12.6104H35.5586ZM31.1973 8.04492V19.4316H29.21V8.04492H31.1973Z" fill="#E5E5E5"/>
<path d="M35.5586 47.6104V49.4795H24.8379V47.6104H35.5586ZM31.1973 43.0449V54.4316H29.21V43.0449H31.1973Z" fill="#E5E5E5"/>
<path d="M35.5586 82.6104V84.4795H24.8379V82.6104H35.5586ZM31.1973 78.0449V89.4316H29.21V78.0449H31.1973Z" fill="#E5E5E5"/>
<path d="M35.5586 117.61V119.479H24.8379V117.61H35.5586ZM31.1973 113.045V124.432H29.21V113.045H31.1973Z" fill="#E5E5E5"/>
<path d="M70.5586 12.6104V14.4795H59.8379V12.6104H70.5586ZM66.1973 8.04492V19.4316H64.21V8.04492H66.1973Z" fill="#E5E5E5"/>
<path d="M70.5586 47.6104V49.4795H59.8379V47.6104H70.5586ZM66.1973 43.0449V54.4316H64.21V43.0449H66.1973Z" fill="#E5E5E5"/>
<path d="M70.5586 82.6104V84.4795H59.8379V82.6104H70.5586ZM66.1973 78.0449V89.4316H64.21V78.0449H66.1973Z" fill="#6246E5"/>
<path d="M70.5586 117.61V119.479H59.8379V117.61H70.5586ZM66.1973 113.045V124.432H64.21V113.045H66.1973Z" fill="#E5E5E5"/>
<path d="M70.5586 152.61V154.479H59.8379V152.61H70.5586ZM66.1973 148.045V159.432H64.21V148.045H66.1973Z" fill="#E5E5E5"/>
<path d="M105.559 12.6104V14.4795H94.8379V12.6104H105.559ZM101.197 8.04492V19.4316H99.21V8.04492H101.197Z" fill="#E5E5E5"/>
<path d="M105.559 47.6104V49.4795H94.8379V47.6104H105.559ZM101.197 43.0449V54.4316H99.21V43.0449H101.197Z" fill="#E5E5E5"/>
<path d="M105.559 82.6104V84.4795H94.8379V82.6104H105.559ZM101.197 78.0449V89.4316H99.21V78.0449H101.197Z" fill="#E5E5E5"/>
<path d="M105.559 117.61V119.479H94.8379V117.61H105.559ZM101.197 113.045V124.432H99.21V113.045H101.197Z" fill="#E5E5E5"/>
<path d="M105.559 152.61V154.479H94.8379V152.61H105.559ZM101.197 148.045V159.432H99.21V148.045H101.197Z" fill="#E5E5E5"/>
<path d="M140.559 12.6104V14.4795H129.838V12.6104H140.559ZM136.197 8.04492V19.4316H134.21V8.04492H136.197Z" fill="#E5E5E5"/>
<path d="M140.559 47.6104V49.4795H129.838V47.6104H140.559ZM136.197 43.0449V54.4316H134.21V43.0449H136.197Z" fill="#E5E5E5"/>
<path d="M140.559 82.6104V84.4795H129.838V82.6104H140.559ZM136.197 78.0449V89.4316H134.21V78.0449H136.197Z" fill="#E5E5E5"/>
<path d="M140.559 117.61V119.479H129.838V117.61H140.559ZM136.197 113.045V124.432H134.21V113.045H136.197Z" fill="#E5E5E5"/>
<path d="M140.559 152.61V154.479H129.838V152.61H140.559ZM136.197 148.045V159.432H134.21V148.045H136.197Z" fill="#E5E5E5"/>
</svg>
