<svg width="21" height="18" viewBox="0 0 21 18" fill="none" xmlns="http://www.w3.org/2000/svg">
<path fill-rule="evenodd" clip-rule="evenodd" d="M19.4798 6.84119C19.3868 6.57461 19.1343 6.40212 18.8367 6.40212L12.7538 6.38775L10.8358 1.07587C10.74 0.810606 10.4896 0.632236 10.1872 0.643344C9.88957 0.646611 9.63846 0.820406 9.54897 1.08763L7.75302 6.38775L1.59657 6.40212C1.29898 6.40212 1.04648 6.57461 0.953527 6.84053C0.859879 7.10711 0.954914 7.3874 1.19493 7.55336L6.01257 10.8993L4.12297 16.5228C4.03279 16.79 4.12991 17.0683 4.37131 17.233C4.4927 17.3153 4.63144 17.3571 4.77018 17.3571C4.90753 17.3571 5.04418 17.3166 5.1628 17.2363L10.242 13.8649L15.2705 17.2337C15.5098 17.3983 15.8233 17.3976 16.0641 17.233C16.3055 17.069 16.4026 16.7907 16.3131 16.5234L14.4207 10.8993L19.2377 7.55401C19.4777 7.3874 19.5727 7.10711 19.4798 6.84119Z" fill="#E7E7E7"/>
<path d="M19.4798 6.84119C19.3868 6.57461 19.1343 6.40213 18.8367 6.40213L12.7538 6.38775L10.8358 1.07587C10.74 0.810606 10.4896 0.632236 10.1872 0.643344C9.88957 0.646611 9.63845 0.820406 9.54897 1.08763L7.75302 6.38775L1.59657 6.40213C1.29898 6.40213 1.04648 6.57461 0.953527 6.84053C0.859879 7.10711 0.954914 7.3874 1.19493 7.55336L6.01257 10.8993L4.12297 16.5228C4.03279 16.79 4.12991 17.0684 4.37131 17.233C4.4927 17.3153 4.63144 17.3571 4.77018 17.3571C4.90753 17.3571 5.04418 17.3166 5.1628 17.2363L10.242 13.8649L15.2705 17.2337C15.5098 17.3983 15.8233 17.3976 16.0641 17.233C16.3055 17.069 16.4026 16.7907 16.3131 16.5234L14.4207 10.8993L19.2377 7.55401C19.4777 7.3874 19.5727 7.10711 19.4798 6.84119" stroke="#E5E5E5"/>
</svg>
